<?xml version="1.0" encoding="utf-8"?>
 <!DOCTYPE svg PUBLIC "-//W3C//DTD SVG 20010904//EN" "http://www.w3.org/TR/2001/REC-SVG-20010904/DTD/svg10.dtd">
<svg class="Qr-item-svg" width="100%" height="100%" viewBox="-5 -5 35 35" fill="white" xmlns="http://www.w3.org/2000/svg" xmlns:xlink="http://www.w3.org/1999/xlink"><rect width="1" height="1" fill="#000000" x="0" y="0"></rect><rect width="1" height="1" fill="#000000" x="0" y="1"></rect><rect width="1" height="1" fill="#000000" x="0" y="2"></rect><rect width="1" height="1" fill="#000000" x="0" y="3"></rect><rect width="1" height="1" fill="#000000" x="0" y="4"></rect><rect width="1" height="1" fill="#000000" x="0" y="5"></rect><rect width="1" height="1" fill="#000000" x="0" y="6"></rect><rect opacity="1" width="1" height="1" fill="#000000" x="0" y="9"></rect><rect opacity="1" width="1" height="1" fill="#000000" x="0" y="14"></rect><rect opacity="1" width="1" height="1" fill="#000000" x="0" y="15"></rect><rect opacity="1" width="1" height="1" fill="#000000" x="0" y="16"></rect><rect width="1" height="1" fill="#000000" x="0" y="18"></rect><rect width="1" height="1" fill="#000000" x="0" y="19"></rect><rect width="1" height="1" fill="#000000" x="0" y="20"></rect><rect width="1" height="1" fill="#000000" x="0" y="21"></rect><rect width="1" height="1" fill="#000000" x="0" y="22"></rect><rect width="1" height="1" fill="#000000" x="0" y="23"></rect><rect width="1" height="1" fill="#000000" x="0" y="24"></rect><rect width="1" height="1" fill="#000000" x="1" y="0"></rect><rect width="1" height="1" fill="#000000" x="1" y="6"></rect><rect opacity="1" width="1" height="1" fill="#000000" x="1" y="8"></rect><rect opacity="1" width="1" height="1" fill="#000000" x="1" y="9"></rect><rect opacity="1" width="1" height="1" fill="#000000" x="1" y="10"></rect><rect opacity="1" width="1" height="1" fill="#000000" x="1" y="13"></rect><rect opacity="1" width="1" height="1" fill="#000000" x="1" y="14"></rect><rect opacity="1" width="1" height="1" fill="#000000" x="1" y="16"></rect><rect width="1" height="1" fill="#000000" x="1" y="18"></rect><rect width="1" height="1" fill="#000000" x="1" y="24"></rect><rect width="1" height="1" fill="#000000" x="2" y="0"></rect><rect width="1" height="1" fill="#000000" x="2" y="2"></rect><rect width="1" height="1" fill="#000000" x="2" y="3"></rect><rect width="1" height="1" fill="#000000" x="2" y="4"></rect><rect width="1" height="1" fill="#000000" x="2" y="6"></rect><rect opacity="1" width="1" height="1" fill="#000000" x="2" y="8"></rect><rect opacity="1" width="1" height="1" fill="#000000" x="2" y="9"></rect><rect opacity="1" width="1" height="1" fill="#000000" x="2" y="13"></rect><rect opacity="1" width="1" height="1" fill="#000000" x="2" y="15"></rect><rect opacity="1" width="1" height="1" fill="#000000" x="2" y="16"></rect><rect width="1" height="1" fill="#000000" x="2" y="18"></rect><rect width="1" height="1" fill="#000000" x="2" y="20"></rect><rect width="1" height="1" fill="#000000" x="2" y="21"></rect><rect width="1" height="1" fill="#000000" x="2" y="22"></rect><rect width="1" height="1" fill="#000000" x="2" y="24"></rect><rect width="1" height="1" fill="#000000" x="3" y="0"></rect><rect width="1" height="1" fill="#000000" x="3" y="2"></rect><rect width="1" height="1" fill="#000000" x="3" y="3"></rect><rect width="1" height="1" fill="#000000" x="3" y="4"></rect><rect width="1" height="1" fill="#000000" x="3" y="6"></rect><rect opacity="1" width="1" height="1" fill="#000000" x="3" y="8"></rect><rect opacity="1" width="1" height="1" fill="#000000" x="3" y="9"></rect><rect opacity="1" width="1" height="1" fill="#000000" x="3" y="11"></rect><rect opacity="1" width="1" height="1" fill="#000000" x="3" y="15"></rect><rect opacity="1" width="1" height="1" fill="#000000" x="3" y="16"></rect><rect width="1" height="1" fill="#000000" x="3" y="18"></rect><rect width="1" height="1" fill="#000000" x="3" y="20"></rect><rect width="1" height="1" fill="#000000" x="3" y="21"></rect><rect width="1" height="1" fill="#000000" x="3" y="22"></rect><rect width="1" height="1" fill="#000000" x="3" y="24"></rect><rect width="1" height="1" fill="#000000" x="4" y="0"></rect><rect width="1" height="1" fill="#000000" x="4" y="2"></rect><rect width="1" height="1" fill="#000000" x="4" y="3"></rect><rect width="1" height="1" fill="#000000" x="4" y="4"></rect><rect width="1" height="1" fill="#000000" x="4" y="6"></rect><rect opacity="1" width="1" height="1" fill="#000000" x="4" y="10"></rect><rect opacity="1" width="1" height="1" fill="#000000" x="4" y="12"></rect><rect opacity="1" width="1" height="1" fill="#000000" x="4" y="16"></rect><rect width="1" height="1" fill="#000000" x="4" y="18"></rect><rect width="1" height="1" fill="#000000" x="4" y="20"></rect><rect width="1" height="1" fill="#000000" x="4" y="21"></rect><rect width="1" height="1" fill="#000000" x="4" y="22"></rect><rect width="1" height="1" fill="#000000" x="4" y="24"></rect><rect width="1" height="1" fill="#000000" x="5" y="0"></rect><rect width="1" height="1" fill="#000000" x="5" y="6"></rect><rect opacity="1" width="1" height="1" fill="#000000" x="5" y="11"></rect><rect opacity="1" width="1" height="1" fill="#000000" x="5" y="12"></rect><rect opacity="1" width="1" height="1" fill="#000000" x="5" y="16"></rect><rect width="1" height="1" fill="#000000" x="5" y="18"></rect><rect width="1" height="1" fill="#000000" x="5" y="24"></rect><rect width="1" height="1" fill="#000000" x="6" y="0"></rect><rect width="1" height="1" fill="#000000" x="6" y="1"></rect><rect width="1" height="1" fill="#000000" x="6" y="2"></rect><rect width="1" height="1" fill="#000000" x="6" y="3"></rect><rect width="1" height="1" fill="#000000" x="6" y="4"></rect><rect width="1" height="1" fill="#000000" x="6" y="5"></rect><rect width="1" height="1" fill="#000000" x="6" y="6"></rect><rect opacity="1" width="1" height="1" fill="#000000" x="6" y="8"></rect><rect opacity="1" width="1" height="1" fill="#000000" x="6" y="10"></rect><rect opacity="1" width="1" height="1" fill="#000000" x="6" y="12"></rect><rect opacity="1" width="1" height="1" fill="#000000" x="6" y="14"></rect><rect opacity="1" width="1" height="1" fill="#000000" x="6" y="16"></rect><rect width="1" height="1" fill="#000000" x="6" y="18"></rect><rect width="1" height="1" fill="#000000" x="6" y="19"></rect><rect width="1" height="1" fill="#000000" x="6" y="20"></rect><rect width="1" height="1" fill="#000000" x="6" y="21"></rect><rect width="1" height="1" fill="#000000" x="6" y="22"></rect><rect width="1" height="1" fill="#000000" x="6" y="23"></rect><rect width="1" height="1" fill="#000000" x="6" y="24"></rect><rect opacity="1" width="1" height="1" fill="#000000" x="7" y="8"></rect><rect opacity="1" width="1" height="1" fill="#000000" x="7" y="9"></rect><rect opacity="1" width="1" height="1" fill="#000000" x="7" y="11"></rect><rect opacity="1" width="1" height="1" fill="#000000" x="7" y="14"></rect><rect opacity="1" width="1" height="1" fill="#000000" x="7" y="15"></rect><rect opacity="1" width="1" height="1" fill="#000000" x="7" y="16"></rect><rect opacity="1" width="1" height="1" fill="#000000" x="8" y="0"></rect><rect opacity="1" width="1" height="1" fill="#000000" x="8" y="6"></rect><rect opacity="1" width="1" height="1" fill="#000000" x="8" y="8"></rect><rect opacity="1" width="1" height="1" fill="#000000" x="8" y="11"></rect><rect opacity="1" width="1" height="1" fill="#000000" x="8" y="12"></rect><rect opacity="1" width="1" height="1" fill="#000000" x="8" y="17"></rect><rect opacity="1" width="1" height="1" fill="#000000" x="8" y="18"></rect><rect opacity="1" width="1" height="1" fill="#000000" x="8" y="21"></rect><rect opacity="1" width="1" height="1" fill="#000000" x="8" y="22"></rect><rect opacity="1" width="1" height="1" fill="#000000" x="8" y="23"></rect><rect opacity="1" width="1" height="1" fill="#000000" x="9" y="0"></rect><rect opacity="1" width="1" height="1" fill="#000000" x="9" y="3"></rect><rect opacity="1" width="1" height="1" fill="#000000" x="9" y="7"></rect><rect opacity="1" width="1" height="1" fill="#000000" x="9" y="9"></rect><rect opacity="1" width="1" height="1" fill="#000000" x="9" y="13"></rect><rect opacity="1" width="1" height="1" fill="#000000" x="9" y="15"></rect><rect opacity="1" width="1" height="1" fill="#000000" x="9" y="17"></rect><rect opacity="1" width="1" height="1" fill="#000000" x="9" y="19"></rect><rect opacity="1" width="1" height="1" fill="#000000" x="9" y="20"></rect><rect opacity="1" width="1" height="1" fill="#000000" x="9" y="21"></rect><rect opacity="1" width="1" height="1" fill="#000000" x="9" y="22"></rect><rect opacity="1" width="1" height="1" fill="#000000" x="9" y="23"></rect><rect opacity="1" width="1" height="1" fill="#000000" x="10" y="0"></rect><rect opacity="1" width="1" height="1" fill="#000000" x="10" y="1"></rect><rect opacity="1" width="1" height="1" fill="#000000" x="10" y="2"></rect><rect opacity="1" width="1" height="1" fill="#000000" x="10" y="3"></rect><rect opacity="1" width="1" height="1" fill="#000000" x="10" y="5"></rect><rect opacity="1" width="1" height="1" fill="#000000" x="10" y="6"></rect><rect opacity="1" width="1" height="1" fill="#000000" x="10" y="7"></rect><rect opacity="1" width="1" height="1" fill="#000000" x="10" y="10"></rect><rect opacity="1" width="1" height="1" fill="#000000" x="10" y="11"></rect><rect opacity="1" width="1" height="1" fill="#000000" x="10" y="13"></rect><rect opacity="1" width="1" height="1" fill="#000000" x="10" y="14"></rect><rect opacity="1" width="1" height="1" fill="#000000" x="10" y="15"></rect><rect opacity="1" width="1" height="1" fill="#000000" x="10" y="16"></rect><rect opacity="1" width="1" height="1" fill="#000000" x="10" y="18"></rect><rect opacity="1" width="1" height="1" fill="#000000" x="10" y="19"></rect><rect opacity="1" width="1" height="1" fill="#000000" x="10" y="21"></rect><rect opacity="1" width="1" height="1" fill="#000000" x="10" y="23"></rect><rect opacity="1" width="1" height="1" fill="#000000" x="10" y="24"></rect><rect opacity="1" width="1" height="1" fill="#000000" x="11" y="0"></rect><rect opacity="1" width="1" height="1" fill="#000000" x="11" y="1"></rect><rect opacity="1" width="1" height="1" fill="#000000" x="11" y="3"></rect><rect opacity="1" width="1" height="1" fill="#000000" x="11" y="5"></rect><rect opacity="1" width="1" height="1" fill="#000000" x="11" y="7"></rect><rect opacity="1" width="1" height="1" fill="#000000" x="11" y="9"></rect><rect opacity="1" width="1" height="1" fill="#000000" x="11" y="11"></rect><rect opacity="1" width="1" height="1" fill="#000000" x="11" y="12"></rect><rect opacity="1" width="1" height="1" fill="#000000" x="11" y="13"></rect><rect opacity="1" width="1" height="1" fill="#000000" x="11" y="15"></rect><rect opacity="1" width="1" height="1" fill="#000000" x="11" y="21"></rect><rect opacity="1" width="1" height="1" fill="#000000" x="11" y="24"></rect><rect opacity="1" width="1" height="1" fill="#000000" x="12" y="1"></rect><rect opacity="1" width="1" height="1" fill="#000000" x="12" y="2"></rect><rect opacity="1" width="1" height="1" fill="#000000" x="12" y="6"></rect><rect opacity="1" width="1" height="1" fill="#000000" x="12" y="7"></rect><rect opacity="1" width="1" height="1" fill="#000000" x="12" y="10"></rect><rect opacity="1" width="1" height="1" fill="#000000" x="12" y="12"></rect><rect opacity="1" width="1" height="1" fill="#000000" x="12" y="13"></rect><rect opacity="1" width="1" height="1" fill="#000000" x="12" y="15"></rect><rect opacity="1" width="1" height="1" fill="#000000" x="12" y="16"></rect><rect opacity="1" width="1" height="1" fill="#000000" x="12" y="18"></rect><rect opacity="1" width="1" height="1" fill="#000000" x="12" y="24"></rect><rect opacity="1" width="1" height="1" fill="#000000" x="13" y="0"></rect><rect opacity="1" width="1" height="1" fill="#000000" x="13" y="1"></rect><rect opacity="1" width="1" height="1" fill="#000000" x="13" y="3"></rect><rect opacity="1" width="1" height="1" fill="#000000" x="13" y="5"></rect><rect opacity="1" width="1" height="1" fill="#000000" x="13" y="8"></rect><rect opacity="1" width="1" height="1" fill="#000000" x="13" y="15"></rect><rect opacity="1" width="1" height="1" fill="#000000" x="13" y="16"></rect><rect opacity="1" width="1" height="1" fill="#000000" x="13" y="19"></rect><rect opacity="1" width="1" height="1" fill="#000000" x="13" y="23"></rect><rect opacity="1" width="1" height="1" fill="#000000" x="14" y="0"></rect><rect opacity="1" width="1" height="1" fill="#000000" x="14" y="3"></rect><rect opacity="1" width="1" height="1" fill="#000000" x="14" y="5"></rect><rect opacity="1" width="1" height="1" fill="#000000" x="14" y="6"></rect><rect opacity="1" width="1" height="1" fill="#000000" x="14" y="9"></rect><rect opacity="1" width="1" height="1" fill="#000000" x="14" y="10"></rect><rect opacity="1" width="1" height="1" fill="#000000" x="14" y="11"></rect><rect opacity="1" width="1" height="1" fill="#000000" x="14" y="12"></rect><rect opacity="1" width="1" height="1" fill="#000000" x="14" y="15"></rect><rect opacity="1" width="1" height="1" fill="#000000" x="14" y="18"></rect><rect opacity="1" width="1" height="1" fill="#000000" x="14" y="19"></rect><rect opacity="1" width="1" height="1" fill="#000000" x="14" y="20"></rect><rect opacity="1" width="1" height="1" fill="#000000" x="14" y="21"></rect><rect opacity="1" width="1" height="1" fill="#000000" x="14" y="23"></rect><rect opacity="1" width="1" height="1" fill="#000000" x="14" y="24"></rect><rect opacity="1" width="1" height="1" fill="#000000" x="15" y="0"></rect><rect opacity="1" width="1" height="1" fill="#000000" x="15" y="4"></rect><rect opacity="1" width="1" height="1" fill="#000000" x="15" y="5"></rect><rect opacity="1" width="1" height="1" fill="#000000" x="15" y="7"></rect><rect opacity="1" width="1" height="1" fill="#000000" x="15" y="8"></rect><rect opacity="1" width="1" height="1" fill="#000000" x="15" y="11"></rect><rect opacity="1" width="1" height="1" fill="#000000" x="15" y="15"></rect><rect opacity="1" width="1" height="1" fill="#000000" x="15" y="19"></rect><rect opacity="1" width="1" height="1" fill="#000000" x="15" y="21"></rect><rect opacity="1" width="1" height="1" fill="#000000" x="15" y="22"></rect><rect opacity="1" width="1" height="1" fill="#000000" x="15" y="24"></rect><rect opacity="1" width="1" height="1" fill="#000000" x="16" y="0"></rect><rect opacity="1" width="1" height="1" fill="#000000" x="16" y="3"></rect><rect opacity="1" width="1" height="1" fill="#000000" x="16" y="4"></rect><rect opacity="1" width="1" height="1" fill="#000000" x="16" y="5"></rect><rect opacity="1" width="1" height="1" fill="#000000" x="16" y="6"></rect><rect opacity="1" width="1" height="1" fill="#000000" x="16" y="7"></rect><rect opacity="1" width="1" height="1" fill="#000000" x="16" y="9"></rect><rect opacity="1" width="1" height="1" fill="#000000" x="16" y="10"></rect><rect opacity="1" width="1" height="1" fill="#000000" x="16" y="11"></rect><rect opacity="1" width="1" height="1" fill="#000000" x="16" y="16"></rect><rect opacity="1" width="1" height="1" fill="#000000" x="16" y="17"></rect><rect opacity="1" width="1" height="1" fill="#000000" x="16" y="18"></rect><rect opacity="1" width="1" height="1" fill="#000000" x="16" y="19"></rect><rect opacity="1" width="1" height="1" fill="#000000" x="16" y="20"></rect><rect opacity="1" width="1" height="1" fill="#000000" x="16" y="22"></rect><rect opacity="1" width="1" height="1" fill="#000000" x="17" y="8"></rect><rect opacity="1" width="1" height="1" fill="#000000" x="17" y="9"></rect><rect opacity="1" width="1" height="1" fill="#000000" x="17" y="12"></rect><rect opacity="1" width="1" height="1" fill="#000000" x="17" y="13"></rect><rect opacity="1" width="1" height="1" fill="#000000" x="17" y="14"></rect><rect opacity="1" width="1" height="1" fill="#000000" x="17" y="16"></rect><rect opacity="1" width="1" height="1" fill="#000000" x="17" y="20"></rect><rect width="1" height="1" fill="#000000" x="18" y="0"></rect><rect width="1" height="1" fill="#000000" x="18" y="1"></rect><rect width="1" height="1" fill="#000000" x="18" y="2"></rect><rect width="1" height="1" fill="#000000" x="18" y="3"></rect><rect width="1" height="1" fill="#000000" x="18" y="4"></rect><rect width="1" height="1" fill="#000000" x="18" y="5"></rect><rect width="1" height="1" fill="#000000" x="18" y="6"></rect><rect opacity="1" width="1" height="1" fill="#000000" x="18" y="11"></rect><rect opacity="1" width="1" height="1" fill="#000000" x="18" y="16"></rect><rect opacity="1" width="1" height="1" fill="#000000" x="18" y="18"></rect><rect opacity="1" width="1" height="1" fill="#000000" x="18" y="20"></rect><rect opacity="1" width="1" height="1" fill="#000000" x="18" y="24"></rect><rect width="1" height="1" fill="#000000" x="19" y="0"></rect><rect width="1" height="1" fill="#000000" x="19" y="6"></rect><rect opacity="1" width="1" height="1" fill="#000000" x="19" y="9"></rect><rect opacity="1" width="1" height="1" fill="#000000" x="19" y="12"></rect><rect opacity="1" width="1" height="1" fill="#000000" x="19" y="13"></rect><rect opacity="1" width="1" height="1" fill="#000000" x="19" y="16"></rect><rect opacity="1" width="1" height="1" fill="#000000" x="19" y="20"></rect><rect opacity="1" width="1" height="1" fill="#000000" x="19" y="23"></rect><rect opacity="1" width="1" height="1" fill="#000000" x="19" y="24"></rect><rect width="1" height="1" fill="#000000" x="20" y="0"></rect><rect width="1" height="1" fill="#000000" x="20" y="2"></rect><rect width="1" height="1" fill="#000000" x="20" y="3"></rect><rect width="1" height="1" fill="#000000" x="20" y="4"></rect><rect width="1" height="1" fill="#000000" x="20" y="6"></rect><rect opacity="1" width="1" height="1" fill="#000000" x="20" y="12"></rect><rect opacity="1" width="1" height="1" fill="#000000" x="20" y="14"></rect><rect opacity="1" width="1" height="1" fill="#000000" x="20" y="15"></rect><rect opacity="1" width="1" height="1" fill="#000000" x="20" y="16"></rect><rect opacity="1" width="1" height="1" fill="#000000" x="20" y="17"></rect><rect opacity="1" width="1" height="1" fill="#000000" x="20" y="18"></rect><rect opacity="1" width="1" height="1" fill="#000000" x="20" y="19"></rect><rect opacity="1" width="1" height="1" fill="#000000" x="20" y="20"></rect><rect opacity="1" width="1" height="1" fill="#000000" x="20" y="22"></rect><rect opacity="1" width="1" height="1" fill="#000000" x="20" y="24"></rect><rect width="1" height="1" fill="#000000" x="21" y="0"></rect><rect width="1" height="1" fill="#000000" x="21" y="2"></rect><rect width="1" height="1" fill="#000000" x="21" y="3"></rect><rect width="1" height="1" fill="#000000" x="21" y="4"></rect><rect width="1" height="1" fill="#000000" x="21" y="6"></rect><rect opacity="1" width="1" height="1" fill="#000000" x="21" y="14"></rect><rect opacity="1" width="1" height="1" fill="#000000" x="21" y="17"></rect><rect opacity="1" width="1" height="1" fill="#000000" x="21" y="18"></rect><rect opacity="1" width="1" height="1" fill="#000000" x="21" y="23"></rect><rect opacity="1" width="1" height="1" fill="#000000" x="21" y="24"></rect><rect width="1" height="1" fill="#000000" x="22" y="0"></rect><rect width="1" height="1" fill="#000000" x="22" y="2"></rect><rect width="1" height="1" fill="#000000" x="22" y="3"></rect><rect width="1" height="1" fill="#000000" x="22" y="4"></rect><rect width="1" height="1" fill="#000000" x="22" y="6"></rect><rect opacity="1" width="1" height="1" fill="#000000" x="22" y="10"></rect><rect opacity="1" width="1" height="1" fill="#000000" x="22" y="11"></rect><rect opacity="1" width="1" height="1" fill="#000000" x="22" y="12"></rect><rect opacity="1" width="1" height="1" fill="#000000" x="22" y="17"></rect><rect opacity="1" width="1" height="1" fill="#000000" x="22" y="21"></rect><rect opacity="1" width="1" height="1" fill="#000000" x="22" y="22"></rect><rect opacity="1" width="1" height="1" fill="#000000" x="22" y="24"></rect><rect width="1" height="1" fill="#000000" x="23" y="0"></rect><rect width="1" height="1" fill="#000000" x="23" y="6"></rect><rect opacity="1" width="1" height="1" fill="#000000" x="23" y="11"></rect><rect opacity="1" width="1" height="1" fill="#000000" x="23" y="14"></rect><rect opacity="1" width="1" height="1" fill="#000000" x="23" y="16"></rect><rect opacity="1" width="1" height="1" fill="#000000" x="23" y="17"></rect><rect opacity="1" width="1" height="1" fill="#000000" x="23" y="18"></rect><rect opacity="1" width="1" height="1" fill="#000000" x="23" y="19"></rect><rect opacity="1" width="1" height="1" fill="#000000" x="23" y="20"></rect><rect opacity="1" width="1" height="1" fill="#000000" x="23" y="24"></rect><rect width="1" height="1" fill="#000000" x="24" y="0"></rect><rect width="1" height="1" fill="#000000" x="24" y="1"></rect><rect width="1" height="1" fill="#000000" x="24" y="2"></rect><rect width="1" height="1" fill="#000000" x="24" y="3"></rect><rect width="1" height="1" fill="#000000" x="24" y="4"></rect><rect width="1" height="1" fill="#000000" x="24" y="5"></rect><rect width="1" height="1" fill="#000000" x="24" y="6"></rect><rect opacity="1" width="1" height="1" fill="#000000" x="24" y="8"></rect><rect opacity="1" width="1" height="1" fill="#000000" x="24" y="10"></rect><rect opacity="1" width="1" height="1" fill="#000000" x="24" y="13"></rect><rect opacity="1" width="1" height="1" fill="#000000" x="24" y="14"></rect><rect opacity="1" width="1" height="1" fill="#000000" x="24" y="16"></rect><rect opacity="1" width="1" height="1" fill="#000000" x="24" y="17"></rect><rect opacity="1" width="1" height="1" fill="#000000" x="24" y="18"></rect><rect opacity="1" width="1" height="1" fill="#000000" x="24" y="21"></rect><rect opacity="1" width="1" height="1" fill="#000000" x="24" y="24"></rect></svg>