<?xml version="1.0" encoding="utf-8"?>
 <!DOCTYPE svg PUBLIC "-//W3C//DTD SVG 20010904//EN" "http://www.w3.org/TR/2001/REC-SVG-20010904/DTD/svg10.dtd">
<svg class="Qr-item-svg" width="100%" height="100%" viewBox="-5 -5 35 35" fill="white" xmlns="http://www.w3.org/2000/svg" xmlns:xlink="http://www.w3.org/1999/xlink"><circle opacity="0.3" r="0.25" fill="#000000" cx="0.5" cy="9.5"></circle><circle opacity="0.3" r="0.25" fill="#000000" cx="0.5" cy="14.5"></circle><circle opacity="0.3" r="0.25" fill="#000000" cx="0.5" cy="15.5"></circle><circle opacity="0.3" r="0.25" fill="#000000" cx="0.5" cy="16.5"></circle><circle opacity="0.3" r="0.25" fill="#000000" cx="1.5" cy="8.5"></circle><circle opacity="0.3" r="0.25" fill="#000000" cx="1.5" cy="9.5"></circle><circle opacity="0.3" r="0.25" fill="#000000" cx="1.5" cy="10.5"></circle><circle opacity="0.3" r="0.25" fill="#000000" cx="1.5" cy="13.5"></circle><circle opacity="0.3" r="0.25" fill="#000000" cx="1.5" cy="14.5"></circle><circle opacity="0.3" r="0.25" fill="#000000" cx="1.5" cy="16.5"></circle><circle opacity="0.3" r="0.25" fill="#000000" cx="2.5" cy="8.5"></circle><circle opacity="0.3" r="0.25" fill="#000000" cx="2.5" cy="9.5"></circle><circle opacity="0.3" r="0.25" fill="#000000" cx="2.5" cy="13.5"></circle><circle opacity="0.3" r="0.25" fill="#000000" cx="2.5" cy="15.5"></circle><circle opacity="0.3" r="0.25" fill="#000000" cx="2.5" cy="16.5"></circle><circle fill="#000000" cx="3.5" cy="3.5" r="1.5"></circle><circle fill="none" stroke-width="1" stroke="#000000" cx="3.5" cy="3.5" r="3"></circle><circle opacity="0.3" r="0.25" fill="#000000" cx="3.5" cy="8.5"></circle><circle opacity="0.3" r="0.25" fill="#000000" cx="3.5" cy="9.5"></circle><circle opacity="0.3" r="0.25" fill="#000000" cx="3.5" cy="11.5"></circle><circle opacity="0.3" r="0.25" fill="#000000" cx="3.5" cy="15.5"></circle><circle opacity="0.3" r="0.25" fill="#000000" cx="3.5" cy="16.5"></circle><circle fill="#000000" cx="3.5" cy="21.5" r="1.5"></circle><circle fill="none" stroke-width="1" stroke="#000000" cx="3.5" cy="21.5" r="3"></circle><circle opacity="0.3" r="0.25" fill="#000000" cx="4.5" cy="10.5"></circle><circle opacity="0.3" r="0.25" fill="#000000" cx="4.5" cy="12.5"></circle><circle opacity="0.3" r="0.25" fill="#000000" cx="4.5" cy="16.5"></circle><circle opacity="0.3" r="0.25" fill="#000000" cx="5.5" cy="11.5"></circle><circle opacity="0.3" r="0.25" fill="#000000" cx="5.5" cy="12.5"></circle><circle opacity="0.3" r="0.25" fill="#000000" cx="5.5" cy="16.5"></circle><circle opacity="0.3" r="0.25" fill="#000000" cx="6.5" cy="8.5"></circle><circle opacity="0.3" r="0.25" fill="#000000" cx="6.5" cy="10.5"></circle><circle opacity="0.3" r="0.25" fill="#000000" cx="6.5" cy="12.5"></circle><circle opacity="0.3" r="0.25" fill="#000000" cx="6.5" cy="14.5"></circle><circle opacity="0.3" r="0.25" fill="#000000" cx="6.5" cy="16.5"></circle><circle opacity="0.3" r="0.25" fill="#000000" cx="7.5" cy="8.5"></circle><circle opacity="0.3" r="0.25" fill="#000000" cx="7.5" cy="9.5"></circle><circle opacity="0.3" r="0.25" fill="#000000" cx="7.5" cy="11.5"></circle><circle opacity="0.3" r="0.25" fill="#000000" cx="7.5" cy="14.5"></circle><circle opacity="0.3" r="0.25" fill="#000000" cx="7.5" cy="15.5"></circle><circle opacity="0.3" r="0.25" fill="#000000" cx="7.5" cy="16.5"></circle><circle opacity="0.3" r="0.25" fill="#000000" cx="8.5" cy="0.5"></circle><circle opacity="0.3" r="0.25" fill="#000000" cx="8.5" cy="6.5"></circle><circle opacity="0.3" r="0.25" fill="#000000" cx="8.5" cy="8.5"></circle><circle opacity="0.3" r="0.25" fill="#000000" cx="8.5" cy="11.5"></circle><circle opacity="0.3" r="0.25" fill="#000000" cx="8.5" cy="12.5"></circle><circle opacity="0.3" r="0.25" fill="#000000" cx="8.5" cy="17.5"></circle><circle opacity="0.3" r="0.25" fill="#000000" cx="8.5" cy="18.5"></circle><circle opacity="0.3" r="0.25" fill="#000000" cx="8.5" cy="21.5"></circle><circle opacity="0.3" r="0.25" fill="#000000" cx="8.5" cy="22.5"></circle><circle opacity="0.3" r="0.25" fill="#000000" cx="8.5" cy="23.5"></circle><circle opacity="0.3" r="0.25" fill="#000000" cx="9.5" cy="0.5"></circle><circle opacity="0.3" r="0.25" fill="#000000" cx="9.5" cy="3.5"></circle><circle opacity="0.3" r="0.25" fill="#000000" cx="9.5" cy="7.5"></circle><circle opacity="0.3" r="0.25" fill="#000000" cx="9.5" cy="9.5"></circle><circle opacity="0.3" r="0.25" fill="#000000" cx="9.5" cy="13.5"></circle><circle opacity="0.3" r="0.25" fill="#000000" cx="9.5" cy="15.5"></circle><circle opacity="0.3" r="0.25" fill="#000000" cx="9.5" cy="17.5"></circle><circle opacity="0.3" r="0.25" fill="#000000" cx="9.5" cy="19.5"></circle><circle opacity="0.3" r="0.25" fill="#000000" cx="9.5" cy="20.5"></circle><circle opacity="0.3" r="0.25" fill="#000000" cx="9.5" cy="21.5"></circle><circle opacity="0.3" r="0.25" fill="#000000" cx="9.5" cy="22.5"></circle><circle opacity="0.3" r="0.25" fill="#000000" cx="9.5" cy="23.5"></circle><circle opacity="0.3" r="0.25" fill="#000000" cx="10.5" cy="0.5"></circle><circle opacity="0.3" r="0.25" fill="#000000" cx="10.5" cy="1.5"></circle><circle opacity="0.3" r="0.25" fill="#000000" cx="10.5" cy="2.5"></circle><circle opacity="0.3" r="0.25" fill="#000000" cx="10.5" cy="3.5"></circle><circle opacity="0.3" r="0.25" fill="#000000" cx="10.5" cy="5.5"></circle><circle opacity="0.3" r="0.25" fill="#000000" cx="10.5" cy="6.5"></circle><circle opacity="0.3" r="0.25" fill="#000000" cx="10.5" cy="7.5"></circle><circle opacity="0.3" r="0.25" fill="#000000" cx="10.5" cy="10.5"></circle><circle opacity="0.3" r="0.25" fill="#000000" cx="10.5" cy="11.5"></circle><circle opacity="0.3" r="0.25" fill="#000000" cx="10.5" cy="13.5"></circle><circle opacity="0.3" r="0.25" fill="#000000" cx="10.5" cy="14.5"></circle><circle opacity="0.3" r="0.25" fill="#000000" cx="10.5" cy="15.5"></circle><circle opacity="0.3" r="0.25" fill="#000000" cx="10.5" cy="16.5"></circle><circle opacity="0.3" r="0.25" fill="#000000" cx="10.5" cy="18.5"></circle><circle opacity="0.3" r="0.25" fill="#000000" cx="10.5" cy="19.5"></circle><circle opacity="0.3" r="0.25" fill="#000000" cx="10.5" cy="21.5"></circle><circle opacity="0.3" r="0.25" fill="#000000" cx="10.5" cy="23.5"></circle><circle opacity="0.3" r="0.25" fill="#000000" cx="10.5" cy="24.5"></circle><circle opacity="0.3" r="0.25" fill="#000000" cx="11.5" cy="0.5"></circle><circle opacity="0.3" r="0.25" fill="#000000" cx="11.5" cy="1.5"></circle><circle opacity="0.3" r="0.25" fill="#000000" cx="11.5" cy="3.5"></circle><circle opacity="0.3" r="0.25" fill="#000000" cx="11.5" cy="5.5"></circle><circle opacity="0.3" r="0.25" fill="#000000" cx="11.5" cy="7.5"></circle><circle opacity="0.3" r="0.25" fill="#000000" cx="11.5" cy="9.5"></circle><circle opacity="0.3" r="0.25" fill="#000000" cx="11.5" cy="11.5"></circle><circle opacity="0.3" r="0.25" fill="#000000" cx="11.5" cy="12.5"></circle><circle opacity="0.3" r="0.25" fill="#000000" cx="11.5" cy="13.5"></circle><circle opacity="0.3" r="0.25" fill="#000000" cx="11.5" cy="15.5"></circle><circle opacity="0.3" r="0.25" fill="#000000" cx="11.5" cy="21.5"></circle><circle opacity="0.3" r="0.25" fill="#000000" cx="11.5" cy="24.5"></circle><circle opacity="0.3" r="0.25" fill="#000000" cx="12.5" cy="1.5"></circle><circle opacity="0.3" r="0.25" fill="#000000" cx="12.5" cy="2.5"></circle><circle opacity="0.3" r="0.25" fill="#000000" cx="12.5" cy="6.5"></circle><circle opacity="0.3" r="0.25" fill="#000000" cx="12.5" cy="7.5"></circle><circle opacity="0.3" r="0.25" fill="#000000" cx="12.5" cy="10.5"></circle><circle opacity="0.3" r="0.25" fill="#000000" cx="12.5" cy="12.5"></circle><circle opacity="0.3" r="0.25" fill="#000000" cx="12.5" cy="13.5"></circle><circle opacity="0.3" r="0.25" fill="#000000" cx="12.5" cy="15.5"></circle><circle opacity="0.3" r="0.25" fill="#000000" cx="12.5" cy="16.5"></circle><circle opacity="0.3" r="0.25" fill="#000000" cx="12.5" cy="18.5"></circle><circle opacity="0.3" r="0.25" fill="#000000" cx="12.5" cy="24.5"></circle><circle opacity="0.3" r="0.25" fill="#000000" cx="13.5" cy="0.5"></circle><circle opacity="0.3" r="0.25" fill="#000000" cx="13.5" cy="1.5"></circle><circle opacity="0.3" r="0.25" fill="#000000" cx="13.5" cy="3.5"></circle><circle opacity="0.3" r="0.25" fill="#000000" cx="13.5" cy="5.5"></circle><circle opacity="0.3" r="0.25" fill="#000000" cx="13.5" cy="8.5"></circle><circle opacity="0.3" r="0.25" fill="#000000" cx="13.5" cy="15.5"></circle><circle opacity="0.3" r="0.25" fill="#000000" cx="13.5" cy="16.5"></circle><circle opacity="0.3" r="0.25" fill="#000000" cx="13.5" cy="19.5"></circle><circle opacity="0.3" r="0.25" fill="#000000" cx="13.5" cy="23.5"></circle><circle opacity="0.3" r="0.25" fill="#000000" cx="14.5" cy="0.5"></circle><circle opacity="0.3" r="0.25" fill="#000000" cx="14.5" cy="3.5"></circle><circle opacity="0.3" r="0.25" fill="#000000" cx="14.5" cy="5.5"></circle><circle opacity="0.3" r="0.25" fill="#000000" cx="14.5" cy="6.5"></circle><circle opacity="0.3" r="0.25" fill="#000000" cx="14.5" cy="9.5"></circle><circle opacity="0.3" r="0.25" fill="#000000" cx="14.5" cy="10.5"></circle><circle opacity="0.3" r="0.25" fill="#000000" cx="14.5" cy="11.5"></circle><circle opacity="0.3" r="0.25" fill="#000000" cx="14.5" cy="12.5"></circle><circle opacity="0.3" r="0.25" fill="#000000" cx="14.5" cy="15.5"></circle><circle opacity="0.3" r="0.25" fill="#000000" cx="14.5" cy="18.5"></circle><circle opacity="0.3" r="0.25" fill="#000000" cx="14.5" cy="19.5"></circle><circle opacity="0.3" r="0.25" fill="#000000" cx="14.5" cy="20.5"></circle><circle opacity="0.3" r="0.25" fill="#000000" cx="14.5" cy="21.5"></circle><circle opacity="0.3" r="0.25" fill="#000000" cx="14.5" cy="23.5"></circle><circle opacity="0.3" r="0.25" fill="#000000" cx="14.5" cy="24.5"></circle><circle opacity="0.3" r="0.25" fill="#000000" cx="15.5" cy="0.5"></circle><circle opacity="0.3" r="0.25" fill="#000000" cx="15.5" cy="4.5"></circle><circle opacity="0.3" r="0.25" fill="#000000" cx="15.5" cy="5.5"></circle><circle opacity="0.3" r="0.25" fill="#000000" cx="15.5" cy="7.5"></circle><circle opacity="0.3" r="0.25" fill="#000000" cx="15.5" cy="8.5"></circle><circle opacity="0.3" r="0.25" fill="#000000" cx="15.5" cy="11.5"></circle><circle opacity="0.3" r="0.25" fill="#000000" cx="15.5" cy="15.5"></circle><circle opacity="0.3" r="0.25" fill="#000000" cx="15.5" cy="19.5"></circle><circle opacity="0.3" r="0.25" fill="#000000" cx="15.5" cy="21.5"></circle><circle opacity="0.3" r="0.25" fill="#000000" cx="15.5" cy="22.5"></circle><circle opacity="0.3" r="0.25" fill="#000000" cx="15.5" cy="24.5"></circle><circle opacity="0.3" r="0.25" fill="#000000" cx="16.5" cy="0.5"></circle><circle opacity="0.3" r="0.25" fill="#000000" cx="16.5" cy="3.5"></circle><circle opacity="0.3" r="0.25" fill="#000000" cx="16.5" cy="4.5"></circle><circle opacity="0.3" r="0.25" fill="#000000" cx="16.5" cy="5.5"></circle><circle opacity="0.3" r="0.25" fill="#000000" cx="16.5" cy="6.5"></circle><circle opacity="0.3" r="0.25" fill="#000000" cx="16.5" cy="7.5"></circle><circle opacity="0.3" r="0.25" fill="#000000" cx="16.5" cy="9.5"></circle><circle opacity="0.3" r="0.25" fill="#000000" cx="16.5" cy="10.5"></circle><circle opacity="0.3" r="0.25" fill="#000000" cx="16.5" cy="11.5"></circle><circle opacity="0.3" r="0.25" fill="#000000" cx="16.5" cy="16.5"></circle><circle opacity="0.3" r="0.25" fill="#000000" cx="16.5" cy="17.5"></circle><circle opacity="0.3" r="0.25" fill="#000000" cx="16.5" cy="18.5"></circle><circle opacity="0.3" r="0.25" fill="#000000" cx="16.5" cy="19.5"></circle><circle opacity="0.3" r="0.25" fill="#000000" cx="16.5" cy="20.5"></circle><circle opacity="0.3" r="0.25" fill="#000000" cx="16.5" cy="22.5"></circle><circle opacity="0.3" r="0.25" fill="#000000" cx="17.5" cy="8.5"></circle><circle opacity="0.3" r="0.25" fill="#000000" cx="17.5" cy="9.5"></circle><circle opacity="0.3" r="0.25" fill="#000000" cx="17.5" cy="12.5"></circle><circle opacity="0.3" r="0.25" fill="#000000" cx="17.5" cy="13.5"></circle><circle opacity="0.3" r="0.25" fill="#000000" cx="17.5" cy="14.5"></circle><circle opacity="0.3" r="0.25" fill="#000000" cx="17.5" cy="16.5"></circle><circle opacity="0.3" r="0.25" fill="#000000" cx="17.5" cy="20.5"></circle><circle opacity="0.3" r="0.25" fill="#000000" cx="18.5" cy="11.5"></circle><circle opacity="0.3" r="0.25" fill="#000000" cx="18.5" cy="16.5"></circle><circle opacity="0.3" r="0.25" fill="#000000" cx="18.5" cy="18.5"></circle><circle opacity="0.3" r="0.25" fill="#000000" cx="18.5" cy="20.5"></circle><circle opacity="0.3" r="0.25" fill="#000000" cx="18.5" cy="24.5"></circle><circle opacity="0.3" r="0.25" fill="#000000" cx="19.5" cy="9.5"></circle><circle opacity="0.3" r="0.25" fill="#000000" cx="19.5" cy="12.5"></circle><circle opacity="0.3" r="0.25" fill="#000000" cx="19.5" cy="13.5"></circle><circle opacity="0.3" r="0.25" fill="#000000" cx="19.5" cy="16.5"></circle><circle opacity="0.3" r="0.25" fill="#000000" cx="19.5" cy="20.5"></circle><circle opacity="0.3" r="0.25" fill="#000000" cx="19.5" cy="23.5"></circle><circle opacity="0.3" r="0.25" fill="#000000" cx="19.5" cy="24.5"></circle><circle opacity="0.3" r="0.25" fill="#000000" cx="20.5" cy="12.5"></circle><circle opacity="0.3" r="0.25" fill="#000000" cx="20.5" cy="14.5"></circle><circle opacity="0.3" r="0.25" fill="#000000" cx="20.5" cy="15.5"></circle><circle opacity="0.3" r="0.25" fill="#000000" cx="20.5" cy="16.5"></circle><circle opacity="0.3" r="0.25" fill="#000000" cx="20.5" cy="17.5"></circle><circle opacity="0.3" r="0.25" fill="#000000" cx="20.5" cy="18.5"></circle><circle opacity="0.3" r="0.25" fill="#000000" cx="20.5" cy="19.5"></circle><circle opacity="0.3" r="0.25" fill="#000000" cx="20.5" cy="20.5"></circle><circle opacity="0.3" r="0.25" fill="#000000" cx="20.5" cy="22.5"></circle><circle opacity="0.3" r="0.25" fill="#000000" cx="20.5" cy="24.5"></circle><circle fill="#000000" cx="21.5" cy="3.5" r="1.5"></circle><circle fill="none" stroke-width="1" stroke="#000000" cx="21.5" cy="3.5" r="3"></circle><circle opacity="0.3" r="0.25" fill="#000000" cx="21.5" cy="14.5"></circle><circle opacity="0.3" r="0.25" fill="#000000" cx="21.5" cy="17.5"></circle><circle opacity="0.3" r="0.25" fill="#000000" cx="21.5" cy="18.5"></circle><circle opacity="0.3" r="0.25" fill="#000000" cx="21.5" cy="23.5"></circle><circle opacity="0.3" r="0.25" fill="#000000" cx="21.5" cy="24.5"></circle><circle opacity="0.3" r="0.25" fill="#000000" cx="22.5" cy="10.5"></circle><circle opacity="0.3" r="0.25" fill="#000000" cx="22.5" cy="11.5"></circle><circle opacity="0.3" r="0.25" fill="#000000" cx="22.5" cy="12.5"></circle><circle opacity="0.3" r="0.25" fill="#000000" cx="22.5" cy="17.5"></circle><circle opacity="0.3" r="0.25" fill="#000000" cx="22.5" cy="21.5"></circle><circle opacity="0.3" r="0.25" fill="#000000" cx="22.5" cy="22.5"></circle><circle opacity="0.3" r="0.25" fill="#000000" cx="22.5" cy="24.5"></circle><circle opacity="0.3" r="0.25" fill="#000000" cx="23.5" cy="11.5"></circle><circle opacity="0.3" r="0.25" fill="#000000" cx="23.5" cy="14.5"></circle><circle opacity="0.3" r="0.25" fill="#000000" cx="23.5" cy="16.5"></circle><circle opacity="0.3" r="0.25" fill="#000000" cx="23.5" cy="17.5"></circle><circle opacity="0.3" r="0.25" fill="#000000" cx="23.5" cy="18.5"></circle><circle opacity="0.3" r="0.25" fill="#000000" cx="23.5" cy="19.5"></circle><circle opacity="0.3" r="0.25" fill="#000000" cx="23.5" cy="20.5"></circle><circle opacity="0.3" r="0.25" fill="#000000" cx="23.5" cy="24.5"></circle><circle opacity="0.3" r="0.25" fill="#000000" cx="24.5" cy="8.5"></circle><circle opacity="0.3" r="0.25" fill="#000000" cx="24.5" cy="10.5"></circle><circle opacity="0.3" r="0.25" fill="#000000" cx="24.5" cy="13.5"></circle><circle opacity="0.3" r="0.25" fill="#000000" cx="24.5" cy="14.5"></circle><circle opacity="0.3" r="0.25" fill="#000000" cx="24.5" cy="16.5"></circle><circle opacity="0.3" r="0.25" fill="#000000" cx="24.5" cy="17.5"></circle><circle opacity="0.3" r="0.25" fill="#000000" cx="24.5" cy="18.5"></circle><circle opacity="0.3" r="0.25" fill="#000000" cx="24.5" cy="21.5"></circle><circle opacity="0.3" r="0.25" fill="#000000" cx="24.5" cy="24.5"></circle></svg>