<?xml version="1.0" encoding="utf-8"?>
 <!DOCTYPE svg PUBLIC "-//W3C//DTD SVG 20010904//EN" "http://www.w3.org/TR/2001/REC-SVG-20010904/DTD/svg10.dtd">
<svg class="Qr-item-svg" width="100%" height="100%" viewBox="-5 -5 35 35" fill="white" xmlns="http://www.w3.org/2000/svg" xmlns:xlink="http://www.w3.org/1999/xlink"><circle opacity="0" r="0.4789867770841846" fill="#000000" cx="0.5" cy="7.5"></circle><circle opacity="0" r="0.47109500277118854" fill="#000000" cx="0.5" cy="8.5"></circle><circle opacity="1" r="0.4645097825490739" fill="#000000" cx="0.5" cy="9.5"></circle><circle opacity="0" r="0.459560154065227" fill="#000000" cx="0.5" cy="10.5"></circle><circle opacity="0" r="0.4564901780488918" fill="#000000" cx="0.5" cy="11.5"></circle><circle opacity="0" r="0.4554499671779924" fill="#000000" cx="0.5" cy="12.5"></circle><circle opacity="0" r="0.4564901780488918" fill="#000000" cx="0.5" cy="13.5"></circle><circle opacity="1" r="0.459560154065227" fill="#000000" cx="0.5" cy="14.5"></circle><circle opacity="1" r="0.4645097825490739" fill="#000000" cx="0.5" cy="15.5"></circle><circle opacity="1" r="0.47109500277118854" fill="#000000" cx="0.5" cy="16.5"></circle><circle opacity="0" r="0.4789867770841846" fill="#000000" cx="0.5" cy="17.5"></circle><circle opacity="0" r="0.5216294143147086" fill="#000000" cx="1.5" cy="1.5"></circle><circle opacity="0" r="0.5129572245679108" fill="#000000" cx="1.5" cy="2.5"></circle><circle opacity="0" r="0.502720199249755" fill="#000000" cx="1.5" cy="3.5"></circle><circle opacity="0" r="0.4914825297043177" fill="#000000" cx="1.5" cy="4.5"></circle><circle opacity="0" r="0.47982455889422254" fill="#000000" cx="1.5" cy="5.5"></circle><circle opacity="0" r="0.45752192543078607" fill="#000000" cx="1.5" cy="7.5"></circle><circle opacity="1" r="0.4479288846965475" fill="#000000" cx="1.5" cy="8.5"></circle><circle opacity="1" r="0.4399807488477777" fill="#000000" cx="1.5" cy="9.5"></circle><circle opacity="1" r="0.4340359701245295" fill="#000000" cx="1.5" cy="10.5"></circle><circle opacity="0" r="0.43036014239472364" fill="#000000" cx="1.5" cy="11.5"></circle><circle opacity="0" r="0.4291165100190276" fill="#000000" cx="1.5" cy="12.5"></circle><circle opacity="1" r="0.43036014239472364" fill="#000000" cx="1.5" cy="13.5"></circle><circle opacity="1" r="0.4340359701245295" fill="#000000" cx="1.5" cy="14.5"></circle><circle opacity="0" r="0.4399807488477777" fill="#000000" cx="1.5" cy="15.5"></circle><circle opacity="1" r="0.4479288846965475" fill="#000000" cx="1.5" cy="16.5"></circle><circle opacity="0" r="0.45752192543078607" fill="#000000" cx="1.5" cy="17.5"></circle><circle opacity="0" r="0.47982455889422254" fill="#000000" cx="1.5" cy="19.5"></circle><circle opacity="0" r="0.4914825297043177" fill="#000000" cx="1.5" cy="20.5"></circle><circle opacity="0" r="0.502720199249755" fill="#000000" cx="1.5" cy="21.5"></circle><circle opacity="0" r="0.5129572245679108" fill="#000000" cx="1.5" cy="22.5"></circle><circle opacity="0" r="0.5216294143147086" fill="#000000" cx="1.5" cy="23.5"></circle><circle opacity="0" r="0.5129572245679108" fill="#000000" cx="2.5" cy="1.5"></circle><circle opacity="0" r="0.46056669729695077" fill="#000000" cx="2.5" cy="5.5"></circle><circle opacity="0" r="0.4340359701245295" fill="#000000" cx="2.5" cy="7.5"></circle><circle opacity="1" r="0.42275918929646644" fill="#000000" cx="2.5" cy="8.5"></circle><circle opacity="1" r="0.41346322998426127" fill="#000000" cx="2.5" cy="9.5"></circle><circle opacity="0" r="0.4065348816787332" fill="#000000" cx="2.5" cy="10.5"></circle><circle opacity="0" r="0.4022604760803843" fill="#000000" cx="2.5" cy="11.5"></circle><circle opacity="0" r="0.4008159015845232" fill="#000000" cx="2.5" cy="12.5"></circle><circle opacity="1" r="0.4022604760803843" fill="#000000" cx="2.5" cy="13.5"></circle><circle opacity="0" r="0.4065348816787332" fill="#000000" cx="2.5" cy="14.5"></circle><circle opacity="1" r="0.41346322998426127" fill="#000000" cx="2.5" cy="15.5"></circle><circle opacity="1" r="0.42275918929646644" fill="#000000" cx="2.5" cy="16.5"></circle><circle opacity="0" r="0.4340359701245295" fill="#000000" cx="2.5" cy="17.5"></circle><circle opacity="0" r="0.46056669729695077" fill="#000000" cx="2.5" cy="19.5"></circle><circle opacity="0" r="0.5129572245679108" fill="#000000" cx="2.5" cy="23.5"></circle><circle opacity="0" r="0.502720199249755" fill="#000000" cx="3.5" cy="1.5"></circle><circle fill="#000000" cx="3.5" cy="3.5" r="1.5"></circle><circle fill="none" stroke-width="1" stroke="#000000" cx="3.5" cy="3.5" r="3"></circle><circle opacity="0" r="0.4399807488477777" fill="#000000" cx="3.5" cy="5.5"></circle><circle opacity="0" r="0.4093353986635422" fill="#000000" cx="3.5" cy="7.5"></circle><circle opacity="1" r="0.3964223748562497" fill="#000000" cx="3.5" cy="8.5"></circle><circle opacity="1" r="0.385817473997684" fill="#000000" cx="3.5" cy="9.5"></circle><circle opacity="0" r="0.3779343895372019" fill="#000000" cx="3.5" cy="10.5"></circle><circle opacity="1" r="0.37307913659484" fill="#000000" cx="3.5" cy="11.5"></circle><circle opacity="0" r="0.3714396025250106" fill="#000000" cx="3.5" cy="12.5"></circle><circle opacity="0" r="0.37307913659484" fill="#000000" cx="3.5" cy="13.5"></circle><circle opacity="0" r="0.3779343895372019" fill="#000000" cx="3.5" cy="14.5"></circle><circle opacity="1" r="0.385817473997684" fill="#000000" cx="3.5" cy="15.5"></circle><circle opacity="1" r="0.3964223748562497" fill="#000000" cx="3.5" cy="16.5"></circle><circle opacity="0" r="0.4093353986635422" fill="#000000" cx="3.5" cy="17.5"></circle><circle opacity="0" r="0.4399807488477777" fill="#000000" cx="3.5" cy="19.5"></circle><circle fill="#000000" cx="3.5" cy="21.5" r="1.5"></circle><circle fill="none" stroke-width="1" stroke="#000000" cx="3.5" cy="21.5" r="3"></circle><circle opacity="0" r="0.502720199249755" fill="#000000" cx="3.5" cy="23.5"></circle><circle opacity="0" r="0.4914825297043177" fill="#000000" cx="4.5" cy="1.5"></circle><circle opacity="0" r="0.41883227289765856" fill="#000000" cx="4.5" cy="5.5"></circle><circle opacity="0" r="0.38426159023988365" fill="#000000" cx="4.5" cy="7.5"></circle><circle opacity="0" r="0.3697894498771336" fill="#000000" cx="4.5" cy="8.5"></circle><circle opacity="0" r="0.3579379970983104" fill="#000000" cx="4.5" cy="9.5"></circle><circle opacity="1" r="0.3491460522461747" fill="#000000" cx="4.5" cy="10.5"></circle><circle opacity="0" r="0.34373800926753606" fill="#000000" cx="4.5" cy="11.5"></circle><circle opacity="1" r="0.3419129574220528" fill="#000000" cx="4.5" cy="12.5"></circle><circle opacity="0" r="0.34373800926753606" fill="#000000" cx="4.5" cy="13.5"></circle><circle opacity="0" r="0.3491460522461747" fill="#000000" cx="4.5" cy="14.5"></circle><circle opacity="0" r="0.3579379970983104" fill="#000000" cx="4.5" cy="15.5"></circle><circle opacity="1" r="0.3697894498771336" fill="#000000" cx="4.5" cy="16.5"></circle><circle opacity="0" r="0.38426159023988365" fill="#000000" cx="4.5" cy="17.5"></circle><circle opacity="0" r="0.41883227289765856" fill="#000000" cx="4.5" cy="19.5"></circle><circle opacity="0" r="0.4914825297043177" fill="#000000" cx="4.5" cy="23.5"></circle><circle opacity="0" r="0.47982455889422254" fill="#000000" cx="5.5" cy="1.5"></circle><circle opacity="0" r="0.46056669729695077" fill="#000000" cx="5.5" cy="2.5"></circle><circle opacity="0" r="0.4399807488477777" fill="#000000" cx="5.5" cy="3.5"></circle><circle opacity="0" r="0.41883227289765856" fill="#000000" cx="5.5" cy="4.5"></circle><circle opacity="0" r="0.3978968857642874" fill="#000000" cx="5.5" cy="5.5"></circle><circle opacity="0" r="0.35966350234831546" fill="#000000" cx="5.5" cy="7.5"></circle><circle opacity="0" r="0.34373800926753606" fill="#000000" cx="5.5" cy="8.5"></circle><circle opacity="0" r="0.3307251061827932" fill="#000000" cx="5.5" cy="9.5"></circle><circle opacity="0" r="0.32108663747177146" fill="#000000" cx="5.5" cy="10.5"></circle><circle opacity="1" r="0.3151638342708421" fill="#000000" cx="5.5" cy="11.5"></circle><circle opacity="1" r="0.3131660467123443" fill="#000000" cx="5.5" cy="12.5"></circle><circle opacity="0" r="0.3151638342708421" fill="#000000" cx="5.5" cy="13.5"></circle><circle opacity="0" r="0.32108663747177146" fill="#000000" cx="5.5" cy="14.5"></circle><circle opacity="0" r="0.3307251061827932" fill="#000000" cx="5.5" cy="15.5"></circle><circle opacity="1" r="0.34373800926753606" fill="#000000" cx="5.5" cy="16.5"></circle><circle opacity="0" r="0.35966350234831546" fill="#000000" cx="5.5" cy="17.5"></circle><circle opacity="0" r="0.3978968857642874" fill="#000000" cx="5.5" cy="19.5"></circle><circle opacity="0" r="0.41883227289765856" fill="#000000" cx="5.5" cy="20.5"></circle><circle opacity="0" r="0.4399807488477777" fill="#000000" cx="5.5" cy="21.5"></circle><circle opacity="0" r="0.46056669729695077" fill="#000000" cx="5.5" cy="22.5"></circle><circle opacity="0" r="0.47982455889422254" fill="#000000" cx="5.5" cy="23.5"></circle><circle opacity="0" r="0.3363701610115458" fill="#000000" cx="6.5" cy="7.5"></circle><circle opacity="1" r="0.3191240907107535" fill="#000000" cx="6.5" cy="8.5"></circle><circle opacity="0" r="0.3050562547415098" fill="#000000" cx="6.5" cy="9.5"></circle><circle opacity="1" r="0.2946491163969901" fill="#000000" cx="6.5" cy="10.5"></circle><circle opacity="0" r="0.28825898248323434" fill="#000000" cx="6.5" cy="11.5"></circle><circle opacity="1" r="0.2861043894338012" fill="#000000" cx="6.5" cy="12.5"></circle><circle opacity="0" r="0.28825898248323434" fill="#000000" cx="6.5" cy="13.5"></circle><circle opacity="1" r="0.2946491163969901" fill="#000000" cx="6.5" cy="14.5"></circle><circle opacity="0" r="0.3050562547415098" fill="#000000" cx="6.5" cy="15.5"></circle><circle opacity="1" r="0.3191240907107535" fill="#000000" cx="6.5" cy="16.5"></circle><circle opacity="0" r="0.3363701610115458" fill="#000000" cx="6.5" cy="17.5"></circle><circle opacity="0" r="0.4789867770841846" fill="#000000" cx="7.5" cy="0.5"></circle><circle opacity="0" r="0.45752192543078607" fill="#000000" cx="7.5" cy="1.5"></circle><circle opacity="0" r="0.4340359701245295" fill="#000000" cx="7.5" cy="2.5"></circle><circle opacity="0" r="0.4093353986635422" fill="#000000" cx="7.5" cy="3.5"></circle><circle opacity="0" r="0.38426159023988365" fill="#000000" cx="7.5" cy="4.5"></circle><circle opacity="0" r="0.35966350234831546" fill="#000000" cx="7.5" cy="5.5"></circle><circle opacity="0" r="0.3363701610115458" fill="#000000" cx="7.5" cy="6.5"></circle><circle opacity="0" r="0.3151638342708421" fill="#000000" cx="7.5" cy="7.5"></circle><circle opacity="1" r="0.29675474622286235" fill="#000000" cx="7.5" cy="8.5"></circle><circle opacity="1" r="0.28175813926877485" fill="#000000" cx="7.5" cy="9.5"></circle><circle opacity="0" r="0.2706744169635149" fill="#000000" cx="7.5" cy="10.5"></circle><circle opacity="1" r="0.2638730013079329" fill="#000000" cx="7.5" cy="11.5"></circle><circle opacity="0" r="0.26158041964832063" fill="#000000" cx="7.5" cy="12.5"></circle><circle opacity="0" r="0.2638730013079329" fill="#000000" cx="7.5" cy="13.5"></circle><circle opacity="1" r="0.2706744169635149" fill="#000000" cx="7.5" cy="14.5"></circle><circle opacity="1" r="0.28175813926877485" fill="#000000" cx="7.5" cy="15.5"></circle><circle opacity="1" r="0.29675474622286235" fill="#000000" cx="7.5" cy="16.5"></circle><circle opacity="0" r="0.3151638342708421" fill="#000000" cx="7.5" cy="17.5"></circle><circle opacity="0" r="0.3363701610115458" fill="#000000" cx="7.5" cy="18.5"></circle><circle opacity="0" r="0.35966350234831546" fill="#000000" cx="7.5" cy="19.5"></circle><circle opacity="0" r="0.38426159023988365" fill="#000000" cx="7.5" cy="20.5"></circle><circle opacity="0" r="0.4093353986635422" fill="#000000" cx="7.5" cy="21.5"></circle><circle opacity="0" r="0.4340359701245295" fill="#000000" cx="7.5" cy="22.5"></circle><circle opacity="0" r="0.45752192543078607" fill="#000000" cx="7.5" cy="23.5"></circle><circle opacity="0" r="0.4789867770841846" fill="#000000" cx="7.5" cy="24.5"></circle><circle opacity="1" r="0.47109500277118854" fill="#000000" cx="8.5" cy="0.5"></circle><circle opacity="0" r="0.4479288846965475" fill="#000000" cx="8.5" cy="1.5"></circle><circle opacity="0" r="0.42275918929646644" fill="#000000" cx="8.5" cy="2.5"></circle><circle opacity="0" r="0.3964223748562497" fill="#000000" cx="8.5" cy="3.5"></circle><circle opacity="0" r="0.3697894498771336" fill="#000000" cx="8.5" cy="4.5"></circle><circle opacity="0" r="0.34373800926753606" fill="#000000" cx="8.5" cy="5.5"></circle><circle opacity="1" r="0.3191240907107535" fill="#000000" cx="8.5" cy="6.5"></circle><circle opacity="0" r="0.29675474622286235" fill="#000000" cx="8.5" cy="7.5"></circle><circle opacity="1" r="0.27736220083683394" fill="#000000" cx="8.5" cy="8.5"></circle><circle opacity="0" r="0.26158041964832063" fill="#000000" cx="8.5" cy="9.5"></circle><circle opacity="0" r="0.24992482774555272" fill="#000000" cx="8.5" cy="10.5"></circle><circle opacity="1" r="0.2427758272531065" fill="#000000" cx="8.5" cy="11.5"></circle><circle opacity="1" r="0.24036663502531389" fill="#000000" cx="8.5" cy="12.5"></circle><circle opacity="0" r="0.2427758272531065" fill="#000000" cx="8.5" cy="13.5"></circle><circle opacity="0" r="0.24992482774555272" fill="#000000" cx="8.5" cy="14.5"></circle><circle opacity="0" r="0.26158041964832063" fill="#000000" cx="8.5" cy="15.5"></circle><circle opacity="0" r="0.27736220083683394" fill="#000000" cx="8.5" cy="16.5"></circle><circle opacity="1" r="0.29675474622286235" fill="#000000" cx="8.5" cy="17.5"></circle><circle opacity="1" r="0.3191240907107535" fill="#000000" cx="8.5" cy="18.5"></circle><circle opacity="0" r="0.34373800926753606" fill="#000000" cx="8.5" cy="19.5"></circle><circle opacity="0" r="0.3697894498771336" fill="#000000" cx="8.5" cy="20.5"></circle><circle opacity="1" r="0.3964223748562497" fill="#000000" cx="8.5" cy="21.5"></circle><circle opacity="1" r="0.42275918929646644" fill="#000000" cx="8.5" cy="22.5"></circle><circle opacity="1" r="0.4479288846965475" fill="#000000" cx="8.5" cy="23.5"></circle><circle opacity="0" r="0.47109500277118854" fill="#000000" cx="8.5" cy="24.5"></circle><circle opacity="1" r="0.4645097825490739" fill="#000000" cx="9.5" cy="0.5"></circle><circle opacity="0" r="0.4399807488477777" fill="#000000" cx="9.5" cy="1.5"></circle><circle opacity="0" r="0.41346322998426127" fill="#000000" cx="9.5" cy="2.5"></circle><circle opacity="1" r="0.385817473997684" fill="#000000" cx="9.5" cy="3.5"></circle><circle opacity="0" r="0.3579379970983104" fill="#000000" cx="9.5" cy="4.5"></circle><circle opacity="0" r="0.3307251061827932" fill="#000000" cx="9.5" cy="5.5"></circle><circle opacity="0" r="0.3050562547415098" fill="#000000" cx="9.5" cy="6.5"></circle><circle opacity="1" r="0.28175813926877485" fill="#000000" cx="9.5" cy="7.5"></circle><circle opacity="0" r="0.26158041964832063" fill="#000000" cx="9.5" cy="8.5"></circle><circle opacity="1" r="0.24517189542976472" fill="#000000" cx="9.5" cy="9.5"></circle><circle opacity="0" r="0.2330598920684139" fill="#000000" cx="9.5" cy="10.5"></circle><circle opacity="0" r="0.22563350953203418" fill="#000000" cx="9.5" cy="11.5"></circle><circle opacity="0" r="0.22313126339755093" fill="#000000" cx="9.5" cy="12.5"></circle><circle opacity="1" r="0.22563350953203418" fill="#000000" cx="9.5" cy="13.5"></circle><circle opacity="0" r="0.2330598920684139" fill="#000000" cx="9.5" cy="14.5"></circle><circle opacity="1" r="0.24517189542976472" fill="#000000" cx="9.5" cy="15.5"></circle><circle opacity="0" r="0.26158041964832063" fill="#000000" cx="9.5" cy="16.5"></circle><circle opacity="1" r="0.28175813926877485" fill="#000000" cx="9.5" cy="17.5"></circle><circle opacity="0" r="0.3050562547415098" fill="#000000" cx="9.5" cy="18.5"></circle><circle opacity="1" r="0.3307251061827932" fill="#000000" cx="9.5" cy="19.5"></circle><circle opacity="1" r="0.3579379970983104" fill="#000000" cx="9.5" cy="20.5"></circle><circle opacity="1" r="0.385817473997684" fill="#000000" cx="9.5" cy="21.5"></circle><circle opacity="1" r="0.41346322998426127" fill="#000000" cx="9.5" cy="22.5"></circle><circle opacity="1" r="0.4399807488477777" fill="#000000" cx="9.5" cy="23.5"></circle><circle opacity="0" r="0.4645097825490739" fill="#000000" cx="9.5" cy="24.5"></circle><circle opacity="1" r="0.459560154065227" fill="#000000" cx="10.5" cy="0.5"></circle><circle opacity="1" r="0.4340359701245295" fill="#000000" cx="10.5" cy="1.5"></circle><circle opacity="1" r="0.4065348816787332" fill="#000000" cx="10.5" cy="2.5"></circle><circle opacity="1" r="0.3779343895372019" fill="#000000" cx="10.5" cy="3.5"></circle><circle opacity="0" r="0.3491460522461747" fill="#000000" cx="10.5" cy="4.5"></circle><circle opacity="1" r="0.32108663747177146" fill="#000000" cx="10.5" cy="5.5"></circle><circle opacity="1" r="0.2946491163969901" fill="#000000" cx="10.5" cy="6.5"></circle><circle opacity="1" r="0.2706744169635149" fill="#000000" cx="10.5" cy="7.5"></circle><circle opacity="0" r="0.24992482774555272" fill="#000000" cx="10.5" cy="8.5"></circle><circle opacity="0" r="0.2330598920684139" fill="#000000" cx="10.5" cy="9.5"></circle><circle opacity="1" r="0.22061555332602276" fill="#000000" cx="10.5" cy="10.5"></circle><circle opacity="1" r="0.21298720979084224" fill="#000000" cx="10.5" cy="11.5"></circle><circle opacity="0" r="0.21041721378548603" fill="#000000" cx="10.5" cy="12.5"></circle><circle opacity="1" r="0.21298720979084224" fill="#000000" cx="10.5" cy="13.5"></circle><circle opacity="1" r="0.22061555332602276" fill="#000000" cx="10.5" cy="14.5"></circle><circle opacity="1" r="0.2330598920684139" fill="#000000" cx="10.5" cy="15.5"></circle><circle opacity="1" r="0.24992482774555272" fill="#000000" cx="10.5" cy="16.5"></circle><circle opacity="0" r="0.2706744169635149" fill="#000000" cx="10.5" cy="17.5"></circle><circle opacity="1" r="0.2946491163969901" fill="#000000" cx="10.5" cy="18.5"></circle><circle opacity="1" r="0.32108663747177146" fill="#000000" cx="10.5" cy="19.5"></circle><circle opacity="0" r="0.3491460522461747" fill="#000000" cx="10.5" cy="20.5"></circle><circle opacity="1" r="0.3779343895372019" fill="#000000" cx="10.5" cy="21.5"></circle><circle opacity="0" r="0.4065348816787332" fill="#000000" cx="10.5" cy="22.5"></circle><circle opacity="1" r="0.4340359701245295" fill="#000000" cx="10.5" cy="23.5"></circle><circle opacity="1" r="0.459560154065227" fill="#000000" cx="10.5" cy="24.5"></circle><circle opacity="1" r="0.4564901780488918" fill="#000000" cx="11.5" cy="0.5"></circle><circle opacity="1" r="0.43036014239472364" fill="#000000" cx="11.5" cy="1.5"></circle><circle opacity="0" r="0.4022604760803843" fill="#000000" cx="11.5" cy="2.5"></circle><circle opacity="1" r="0.37307913659484" fill="#000000" cx="11.5" cy="3.5"></circle><circle opacity="0" r="0.34373800926753606" fill="#000000" cx="11.5" cy="4.5"></circle><circle opacity="1" r="0.3151638342708421" fill="#000000" cx="11.5" cy="5.5"></circle><circle opacity="0" r="0.28825898248323434" fill="#000000" cx="11.5" cy="6.5"></circle><circle opacity="1" r="0.2638730013079329" fill="#000000" cx="11.5" cy="7.5"></circle><circle opacity="0" r="0.2427758272531065" fill="#000000" cx="11.5" cy="8.5"></circle><circle opacity="1" r="0.22563350953203418" fill="#000000" cx="11.5" cy="9.5"></circle><circle opacity="0" r="0.21298720979084224" fill="#000000" cx="11.5" cy="10.5"></circle><circle opacity="1" r="0.20523613981189484" fill="#000000" cx="11.5" cy="11.5"></circle><circle opacity="1" r="0.20262497492646522" fill="#000000" cx="11.5" cy="12.5"></circle><circle opacity="1" r="0.20523613981189484" fill="#000000" cx="11.5" cy="13.5"></circle><circle opacity="0" r="0.21298720979084224" fill="#000000" cx="11.5" cy="14.5"></circle><circle opacity="1" r="0.22563350953203418" fill="#000000" cx="11.5" cy="15.5"></circle><circle opacity="0" r="0.2427758272531065" fill="#000000" cx="11.5" cy="16.5"></circle><circle opacity="0" r="0.2638730013079329" fill="#000000" cx="11.5" cy="17.5"></circle><circle opacity="0" r="0.28825898248323434" fill="#000000" cx="11.5" cy="18.5"></circle><circle opacity="0" r="0.3151638342708421" fill="#000000" cx="11.5" cy="19.5"></circle><circle opacity="0" r="0.34373800926753606" fill="#000000" cx="11.5" cy="20.5"></circle><circle opacity="1" r="0.37307913659484" fill="#000000" cx="11.5" cy="21.5"></circle><circle opacity="0" r="0.4022604760803843" fill="#000000" cx="11.5" cy="22.5"></circle><circle opacity="0" r="0.43036014239472364" fill="#000000" cx="11.5" cy="23.5"></circle><circle opacity="1" r="0.4564901780488918" fill="#000000" cx="11.5" cy="24.5"></circle><circle opacity="0" r="0.4554499671779924" fill="#000000" cx="12.5" cy="0.5"></circle><circle opacity="1" r="0.4291165100190276" fill="#000000" cx="12.5" cy="1.5"></circle><circle opacity="1" r="0.4008159015845232" fill="#000000" cx="12.5" cy="2.5"></circle><circle opacity="0" r="0.3714396025250106" fill="#000000" cx="12.5" cy="3.5"></circle><circle opacity="0" r="0.3419129574220528" fill="#000000" cx="12.5" cy="4.5"></circle><circle opacity="0" r="0.3131660467123443" fill="#000000" cx="12.5" cy="5.5"></circle><circle opacity="1" r="0.2861043894338012" fill="#000000" cx="12.5" cy="6.5"></circle><circle opacity="1" r="0.26158041964832063" fill="#000000" cx="12.5" cy="7.5"></circle><circle opacity="0" r="0.24036663502531389" fill="#000000" cx="12.5" cy="8.5"></circle><circle opacity="0" r="0.22313126339755093" fill="#000000" cx="12.5" cy="9.5"></circle><circle opacity="1" r="0.21041721378548603" fill="#000000" cx="12.5" cy="10.5"></circle><circle opacity="0" r="0.20262497492646522" fill="#000000" cx="12.5" cy="11.5"></circle><circle opacity="1" r="0.2" fill="#000000" cx="12.5" cy="12.5"></circle><circle opacity="1" r="0.20262497492646522" fill="#000000" cx="12.5" cy="13.5"></circle><circle opacity="0" r="0.21041721378548603" fill="#000000" cx="12.5" cy="14.5"></circle><circle opacity="1" r="0.22313126339755093" fill="#000000" cx="12.5" cy="15.5"></circle><circle opacity="1" r="0.24036663502531389" fill="#000000" cx="12.5" cy="16.5"></circle><circle opacity="0" r="0.26158041964832063" fill="#000000" cx="12.5" cy="17.5"></circle><circle opacity="1" r="0.2861043894338012" fill="#000000" cx="12.5" cy="18.5"></circle><circle opacity="0" r="0.3131660467123443" fill="#000000" cx="12.5" cy="19.5"></circle><circle opacity="0" r="0.3419129574220528" fill="#000000" cx="12.5" cy="20.5"></circle><circle opacity="0" r="0.3714396025250106" fill="#000000" cx="12.5" cy="21.5"></circle><circle opacity="0" r="0.4008159015845232" fill="#000000" cx="12.5" cy="22.5"></circle><circle opacity="0" r="0.4291165100190276" fill="#000000" cx="12.5" cy="23.5"></circle><circle opacity="1" r="0.4554499671779924" fill="#000000" cx="12.5" cy="24.5"></circle><circle opacity="1" r="0.4564901780488918" fill="#000000" cx="13.5" cy="0.5"></circle><circle opacity="1" r="0.43036014239472364" fill="#000000" cx="13.5" cy="1.5"></circle><circle opacity="0" r="0.4022604760803843" fill="#000000" cx="13.5" cy="2.5"></circle><circle opacity="1" r="0.37307913659484" fill="#000000" cx="13.5" cy="3.5"></circle><circle opacity="0" r="0.34373800926753606" fill="#000000" cx="13.5" cy="4.5"></circle><circle opacity="1" r="0.3151638342708421" fill="#000000" cx="13.5" cy="5.5"></circle><circle opacity="0" r="0.28825898248323434" fill="#000000" cx="13.5" cy="6.5"></circle><circle opacity="0" r="0.2638730013079329" fill="#000000" cx="13.5" cy="7.5"></circle><circle opacity="1" r="0.2427758272531065" fill="#000000" cx="13.5" cy="8.5"></circle><circle opacity="0" r="0.22563350953203418" fill="#000000" cx="13.5" cy="9.5"></circle><circle opacity="0" r="0.21298720979084224" fill="#000000" cx="13.5" cy="10.5"></circle><circle opacity="0" r="0.20523613981189484" fill="#000000" cx="13.5" cy="11.5"></circle><circle opacity="0" r="0.20262497492646522" fill="#000000" cx="13.5" cy="12.5"></circle><circle opacity="0" r="0.20523613981189484" fill="#000000" cx="13.5" cy="13.5"></circle><circle opacity="0" r="0.21298720979084224" fill="#000000" cx="13.5" cy="14.5"></circle><circle opacity="1" r="0.22563350953203418" fill="#000000" cx="13.5" cy="15.5"></circle><circle opacity="1" r="0.2427758272531065" fill="#000000" cx="13.5" cy="16.5"></circle><circle opacity="0" r="0.2638730013079329" fill="#000000" cx="13.5" cy="17.5"></circle><circle opacity="0" r="0.28825898248323434" fill="#000000" cx="13.5" cy="18.5"></circle><circle opacity="1" r="0.3151638342708421" fill="#000000" cx="13.5" cy="19.5"></circle><circle opacity="0" r="0.34373800926753606" fill="#000000" cx="13.5" cy="20.5"></circle><circle opacity="0" r="0.37307913659484" fill="#000000" cx="13.5" cy="21.5"></circle><circle opacity="0" r="0.4022604760803843" fill="#000000" cx="13.5" cy="22.5"></circle><circle opacity="1" r="0.43036014239472364" fill="#000000" cx="13.5" cy="23.5"></circle><circle opacity="0" r="0.4564901780488918" fill="#000000" cx="13.5" cy="24.5"></circle><circle opacity="1" r="0.459560154065227" fill="#000000" cx="14.5" cy="0.5"></circle><circle opacity="0" r="0.4340359701245295" fill="#000000" cx="14.5" cy="1.5"></circle><circle opacity="0" r="0.4065348816787332" fill="#000000" cx="14.5" cy="2.5"></circle><circle opacity="1" r="0.3779343895372019" fill="#000000" cx="14.5" cy="3.5"></circle><circle opacity="0" r="0.3491460522461747" fill="#000000" cx="14.5" cy="4.5"></circle><circle opacity="1" r="0.32108663747177146" fill="#000000" cx="14.5" cy="5.5"></circle><circle opacity="1" r="0.2946491163969901" fill="#000000" cx="14.5" cy="6.5"></circle><circle opacity="0" r="0.2706744169635149" fill="#000000" cx="14.5" cy="7.5"></circle><circle opacity="0" r="0.24992482774555272" fill="#000000" cx="14.5" cy="8.5"></circle><circle opacity="1" r="0.2330598920684139" fill="#000000" cx="14.5" cy="9.5"></circle><circle opacity="1" r="0.22061555332602276" fill="#000000" cx="14.5" cy="10.5"></circle><circle opacity="1" r="0.21298720979084224" fill="#000000" cx="14.5" cy="11.5"></circle><circle opacity="1" r="0.21041721378548603" fill="#000000" cx="14.5" cy="12.5"></circle><circle opacity="0" r="0.21298720979084224" fill="#000000" cx="14.5" cy="13.5"></circle><circle opacity="0" r="0.22061555332602276" fill="#000000" cx="14.5" cy="14.5"></circle><circle opacity="1" r="0.2330598920684139" fill="#000000" cx="14.5" cy="15.5"></circle><circle opacity="0" r="0.24992482774555272" fill="#000000" cx="14.5" cy="16.5"></circle><circle opacity="0" r="0.2706744169635149" fill="#000000" cx="14.5" cy="17.5"></circle><circle opacity="1" r="0.2946491163969901" fill="#000000" cx="14.5" cy="18.5"></circle><circle opacity="1" r="0.32108663747177146" fill="#000000" cx="14.5" cy="19.5"></circle><circle opacity="1" r="0.3491460522461747" fill="#000000" cx="14.5" cy="20.5"></circle><circle opacity="1" r="0.3779343895372019" fill="#000000" cx="14.5" cy="21.5"></circle><circle opacity="0" r="0.4065348816787332" fill="#000000" cx="14.5" cy="22.5"></circle><circle opacity="1" r="0.4340359701245295" fill="#000000" cx="14.5" cy="23.5"></circle><circle opacity="1" r="0.459560154065227" fill="#000000" cx="14.5" cy="24.5"></circle><circle opacity="1" r="0.4645097825490739" fill="#000000" cx="15.5" cy="0.5"></circle><circle opacity="0" r="0.4399807488477777" fill="#000000" cx="15.5" cy="1.5"></circle><circle opacity="0" r="0.41346322998426127" fill="#000000" cx="15.5" cy="2.5"></circle><circle opacity="0" r="0.385817473997684" fill="#000000" cx="15.5" cy="3.5"></circle><circle opacity="1" r="0.3579379970983104" fill="#000000" cx="15.5" cy="4.5"></circle><circle opacity="1" r="0.3307251061827932" fill="#000000" cx="15.5" cy="5.5"></circle><circle opacity="0" r="0.3050562547415098" fill="#000000" cx="15.5" cy="6.5"></circle><circle opacity="1" r="0.28175813926877485" fill="#000000" cx="15.5" cy="7.5"></circle><circle opacity="1" r="0.26158041964832063" fill="#000000" cx="15.5" cy="8.5"></circle><circle opacity="0" r="0.24517189542976472" fill="#000000" cx="15.5" cy="9.5"></circle><circle opacity="0" r="0.2330598920684139" fill="#000000" cx="15.5" cy="10.5"></circle><circle opacity="1" r="0.22563350953203418" fill="#000000" cx="15.5" cy="11.5"></circle><circle opacity="0" r="0.22313126339755093" fill="#000000" cx="15.5" cy="12.5"></circle><circle opacity="0" r="0.22563350953203418" fill="#000000" cx="15.5" cy="13.5"></circle><circle opacity="0" r="0.2330598920684139" fill="#000000" cx="15.5" cy="14.5"></circle><circle opacity="1" r="0.24517189542976472" fill="#000000" cx="15.5" cy="15.5"></circle><circle opacity="0" r="0.26158041964832063" fill="#000000" cx="15.5" cy="16.5"></circle><circle opacity="0" r="0.28175813926877485" fill="#000000" cx="15.5" cy="17.5"></circle><circle opacity="0" r="0.3050562547415098" fill="#000000" cx="15.5" cy="18.5"></circle><circle opacity="1" r="0.3307251061827932" fill="#000000" cx="15.5" cy="19.5"></circle><circle opacity="0" r="0.3579379970983104" fill="#000000" cx="15.5" cy="20.5"></circle><circle opacity="1" r="0.385817473997684" fill="#000000" cx="15.5" cy="21.5"></circle><circle opacity="1" r="0.41346322998426127" fill="#000000" cx="15.5" cy="22.5"></circle><circle opacity="0" r="0.4399807488477777" fill="#000000" cx="15.5" cy="23.5"></circle><circle opacity="1" r="0.4645097825490739" fill="#000000" cx="15.5" cy="24.5"></circle><circle opacity="1" r="0.47109500277118854" fill="#000000" cx="16.5" cy="0.5"></circle><circle opacity="0" r="0.4479288846965475" fill="#000000" cx="16.5" cy="1.5"></circle><circle opacity="0" r="0.42275918929646644" fill="#000000" cx="16.5" cy="2.5"></circle><circle opacity="1" r="0.3964223748562497" fill="#000000" cx="16.5" cy="3.5"></circle><circle opacity="1" r="0.3697894498771336" fill="#000000" cx="16.5" cy="4.5"></circle><circle opacity="1" r="0.34373800926753606" fill="#000000" cx="16.5" cy="5.5"></circle><circle opacity="1" r="0.3191240907107535" fill="#000000" cx="16.5" cy="6.5"></circle><circle opacity="1" r="0.29675474622286235" fill="#000000" cx="16.5" cy="7.5"></circle><circle opacity="0" r="0.27736220083683394" fill="#000000" cx="16.5" cy="8.5"></circle><circle opacity="1" r="0.26158041964832063" fill="#000000" cx="16.5" cy="9.5"></circle><circle opacity="1" r="0.24992482774555272" fill="#000000" cx="16.5" cy="10.5"></circle><circle opacity="1" r="0.2427758272531065" fill="#000000" cx="16.5" cy="11.5"></circle><circle opacity="0" r="0.24036663502531389" fill="#000000" cx="16.5" cy="12.5"></circle><circle opacity="0" r="0.2427758272531065" fill="#000000" cx="16.5" cy="13.5"></circle><circle opacity="0" r="0.24992482774555272" fill="#000000" cx="16.5" cy="14.5"></circle><circle opacity="0" r="0.26158041964832063" fill="#000000" cx="16.5" cy="15.5"></circle><circle opacity="1" r="0.27736220083683394" fill="#000000" cx="16.5" cy="16.5"></circle><circle opacity="1" r="0.29675474622286235" fill="#000000" cx="16.5" cy="17.5"></circle><circle opacity="1" r="0.3191240907107535" fill="#000000" cx="16.5" cy="18.5"></circle><circle opacity="1" r="0.34373800926753606" fill="#000000" cx="16.5" cy="19.5"></circle><circle opacity="1" r="0.3697894498771336" fill="#000000" cx="16.5" cy="20.5"></circle><circle opacity="0" r="0.3964223748562497" fill="#000000" cx="16.5" cy="21.5"></circle><circle opacity="1" r="0.42275918929646644" fill="#000000" cx="16.5" cy="22.5"></circle><circle opacity="0" r="0.4479288846965475" fill="#000000" cx="16.5" cy="23.5"></circle><circle opacity="0" r="0.47109500277118854" fill="#000000" cx="16.5" cy="24.5"></circle><circle opacity="0" r="0.4789867770841846" fill="#000000" cx="17.5" cy="0.5"></circle><circle opacity="0" r="0.45752192543078607" fill="#000000" cx="17.5" cy="1.5"></circle><circle opacity="0" r="0.4340359701245295" fill="#000000" cx="17.5" cy="2.5"></circle><circle opacity="0" r="0.4093353986635422" fill="#000000" cx="17.5" cy="3.5"></circle><circle opacity="0" r="0.38426159023988365" fill="#000000" cx="17.5" cy="4.5"></circle><circle opacity="0" r="0.35966350234831546" fill="#000000" cx="17.5" cy="5.5"></circle><circle opacity="0" r="0.3363701610115458" fill="#000000" cx="17.5" cy="6.5"></circle><circle opacity="0" r="0.3151638342708421" fill="#000000" cx="17.5" cy="7.5"></circle><circle opacity="1" r="0.29675474622286235" fill="#000000" cx="17.5" cy="8.5"></circle><circle opacity="1" r="0.28175813926877485" fill="#000000" cx="17.5" cy="9.5"></circle><circle opacity="0" r="0.2706744169635149" fill="#000000" cx="17.5" cy="10.5"></circle><circle opacity="0" r="0.2638730013079329" fill="#000000" cx="17.5" cy="11.5"></circle><circle opacity="1" r="0.26158041964832063" fill="#000000" cx="17.5" cy="12.5"></circle><circle opacity="1" r="0.2638730013079329" fill="#000000" cx="17.5" cy="13.5"></circle><circle opacity="1" r="0.2706744169635149" fill="#000000" cx="17.5" cy="14.5"></circle><circle opacity="0" r="0.28175813926877485" fill="#000000" cx="17.5" cy="15.5"></circle><circle opacity="1" r="0.29675474622286235" fill="#000000" cx="17.5" cy="16.5"></circle><circle opacity="0" r="0.3151638342708421" fill="#000000" cx="17.5" cy="17.5"></circle><circle opacity="0" r="0.3363701610115458" fill="#000000" cx="17.5" cy="18.5"></circle><circle opacity="0" r="0.35966350234831546" fill="#000000" cx="17.5" cy="19.5"></circle><circle opacity="1" r="0.38426159023988365" fill="#000000" cx="17.5" cy="20.5"></circle><circle opacity="0" r="0.4093353986635422" fill="#000000" cx="17.5" cy="21.5"></circle><circle opacity="0" r="0.4340359701245295" fill="#000000" cx="17.5" cy="22.5"></circle><circle opacity="0" r="0.45752192543078607" fill="#000000" cx="17.5" cy="23.5"></circle><circle opacity="0" r="0.4789867770841846" fill="#000000" cx="17.5" cy="24.5"></circle><circle opacity="0" r="0.3363701610115458" fill="#000000" cx="18.5" cy="7.5"></circle><circle opacity="0" r="0.3191240907107535" fill="#000000" cx="18.5" cy="8.5"></circle><circle opacity="0" r="0.3050562547415098" fill="#000000" cx="18.5" cy="9.5"></circle><circle opacity="0" r="0.2946491163969901" fill="#000000" cx="18.5" cy="10.5"></circle><circle opacity="1" r="0.28825898248323434" fill="#000000" cx="18.5" cy="11.5"></circle><circle opacity="0" r="0.2861043894338012" fill="#000000" cx="18.5" cy="12.5"></circle><circle opacity="0" r="0.28825898248323434" fill="#000000" cx="18.5" cy="13.5"></circle><circle opacity="0" r="0.2946491163969901" fill="#000000" cx="18.5" cy="14.5"></circle><circle opacity="0" r="0.3050562547415098" fill="#000000" cx="18.5" cy="15.5"></circle><circle opacity="1" r="0.3191240907107535" fill="#000000" cx="18.5" cy="16.5"></circle><circle opacity="0" r="0.3363701610115458" fill="#000000" cx="18.5" cy="17.5"></circle><circle opacity="1" r="0.3562015800784477" fill="#000000" cx="18.5" cy="18.5"></circle><circle opacity="0" r="0.3779343895372019" fill="#000000" cx="18.5" cy="19.5"></circle><circle opacity="1" r="0.4008159015845232" fill="#000000" cx="18.5" cy="20.5"></circle><circle opacity="0" r="0.4240493185101754" fill="#000000" cx="18.5" cy="21.5"></circle><circle opacity="0" r="0.4468198370347908" fill="#000000" cx="18.5" cy="22.5"></circle><circle opacity="0" r="0.46832139782653237" fill="#000000" cx="18.5" cy="23.5"></circle><circle opacity="1" r="0.4877832190422833" fill="#000000" cx="18.5" cy="24.5"></circle><circle opacity="0" r="0.47982455889422254" fill="#000000" cx="19.5" cy="1.5"></circle><circle opacity="0" r="0.46056669729695077" fill="#000000" cx="19.5" cy="2.5"></circle><circle opacity="0" r="0.4399807488477777" fill="#000000" cx="19.5" cy="3.5"></circle><circle opacity="0" r="0.41883227289765856" fill="#000000" cx="19.5" cy="4.5"></circle><circle opacity="0" r="0.3978968857642874" fill="#000000" cx="19.5" cy="5.5"></circle><circle opacity="0" r="0.35966350234831546" fill="#000000" cx="19.5" cy="7.5"></circle><circle opacity="0" r="0.34373800926753606" fill="#000000" cx="19.5" cy="8.5"></circle><circle opacity="1" r="0.3307251061827932" fill="#000000" cx="19.5" cy="9.5"></circle><circle opacity="0" r="0.32108663747177146" fill="#000000" cx="19.5" cy="10.5"></circle><circle opacity="0" r="0.3151638342708421" fill="#000000" cx="19.5" cy="11.5"></circle><circle opacity="1" r="0.3131660467123443" fill="#000000" cx="19.5" cy="12.5"></circle><circle opacity="1" r="0.3151638342708421" fill="#000000" cx="19.5" cy="13.5"></circle><circle opacity="0" r="0.32108663747177146" fill="#000000" cx="19.5" cy="14.5"></circle><circle opacity="0" r="0.3307251061827932" fill="#000000" cx="19.5" cy="15.5"></circle><circle opacity="1" r="0.34373800926753606" fill="#000000" cx="19.5" cy="16.5"></circle><circle opacity="0" r="0.35966350234831546" fill="#000000" cx="19.5" cy="17.5"></circle><circle opacity="0" r="0.3779343895372019" fill="#000000" cx="19.5" cy="18.5"></circle><circle opacity="0" r="0.3978968857642874" fill="#000000" cx="19.5" cy="19.5"></circle><circle opacity="1" r="0.41883227289765856" fill="#000000" cx="19.5" cy="20.5"></circle><circle opacity="0" r="0.4399807488477777" fill="#000000" cx="19.5" cy="21.5"></circle><circle opacity="0" r="0.46056669729695077" fill="#000000" cx="19.5" cy="22.5"></circle><circle opacity="1" r="0.47982455889422254" fill="#000000" cx="19.5" cy="23.5"></circle><circle opacity="1" r="0.49702446422044255" fill="#000000" cx="19.5" cy="24.5"></circle><circle opacity="0" r="0.4914825297043177" fill="#000000" cx="20.5" cy="1.5"></circle><circle opacity="0" r="0.41883227289765856" fill="#000000" cx="20.5" cy="5.5"></circle><circle opacity="0" r="0.38426159023988365" fill="#000000" cx="20.5" cy="7.5"></circle><circle opacity="0" r="0.3697894498771336" fill="#000000" cx="20.5" cy="8.5"></circle><circle opacity="0" r="0.3579379970983104" fill="#000000" cx="20.5" cy="9.5"></circle><circle opacity="0" r="0.3491460522461747" fill="#000000" cx="20.5" cy="10.5"></circle><circle opacity="0" r="0.34373800926753606" fill="#000000" cx="20.5" cy="11.5"></circle><circle opacity="1" r="0.3419129574220528" fill="#000000" cx="20.5" cy="12.5"></circle><circle opacity="0" r="0.34373800926753606" fill="#000000" cx="20.5" cy="13.5"></circle><circle opacity="1" r="0.3491460522461747" fill="#000000" cx="20.5" cy="14.5"></circle><circle opacity="1" r="0.3579379970983104" fill="#000000" cx="20.5" cy="15.5"></circle><circle opacity="1" r="0.3697894498771336" fill="#000000" cx="20.5" cy="16.5"></circle><circle opacity="1" r="0.38426159023988365" fill="#000000" cx="20.5" cy="17.5"></circle><circle opacity="1" r="0.4008159015845232" fill="#000000" cx="20.5" cy="18.5"></circle><circle opacity="1" r="0.41883227289765856" fill="#000000" cx="20.5" cy="19.5"></circle><circle opacity="1" r="0.4376298819275121" fill="#000000" cx="20.5" cy="20.5"></circle><circle opacity="0" r="0.4564901780488918" fill="#000000" cx="20.5" cy="21.5"></circle><circle opacity="1" r="0.4746812138916434" fill="#000000" cx="20.5" cy="22.5"></circle><circle opacity="0" r="0.4914825297043177" fill="#000000" cx="20.5" cy="23.5"></circle><circle opacity="1" r="0.506209774991048" fill="#000000" cx="20.5" cy="24.5"></circle><circle opacity="0" r="0.502720199249755" fill="#000000" cx="21.5" cy="1.5"></circle><circle fill="#000000" cx="21.5" cy="3.5" r="1.5"></circle><circle fill="none" stroke-width="1" stroke="#000000" cx="21.5" cy="3.5" r="3"></circle><circle opacity="0" r="0.4399807488477777" fill="#000000" cx="21.5" cy="5.5"></circle><circle opacity="0" r="0.4093353986635422" fill="#000000" cx="21.5" cy="7.5"></circle><circle opacity="0" r="0.3964223748562497" fill="#000000" cx="21.5" cy="8.5"></circle><circle opacity="0" r="0.385817473997684" fill="#000000" cx="21.5" cy="9.5"></circle><circle opacity="0" r="0.3779343895372019" fill="#000000" cx="21.5" cy="10.5"></circle><circle opacity="0" r="0.37307913659484" fill="#000000" cx="21.5" cy="11.5"></circle><circle opacity="0" r="0.3714396025250106" fill="#000000" cx="21.5" cy="12.5"></circle><circle opacity="0" r="0.37307913659484" fill="#000000" cx="21.5" cy="13.5"></circle><circle opacity="1" r="0.3779343895372019" fill="#000000" cx="21.5" cy="14.5"></circle><circle opacity="0" r="0.385817473997684" fill="#000000" cx="21.5" cy="15.5"></circle><circle opacity="0" r="0.3964223748562497" fill="#000000" cx="21.5" cy="16.5"></circle><circle opacity="1" r="0.4093353986635422" fill="#000000" cx="21.5" cy="17.5"></circle><circle opacity="1" r="0.4240493185101754" fill="#000000" cx="21.5" cy="18.5"></circle><circle opacity="0" r="0.4399807488477777" fill="#000000" cx="21.5" cy="19.5"></circle><circle opacity="0" r="0.4564901780488918" fill="#000000" cx="21.5" cy="20.5"></circle><circle opacity="0" r="0.4729039982914483" fill="#000000" cx="21.5" cy="21.5"></circle><circle opacity="0" r="0.4885378055499088" fill="#000000" cx="21.5" cy="22.5"></circle><circle opacity="1" r="0.502720199249755" fill="#000000" cx="21.5" cy="23.5"></circle><circle opacity="1" r="0.5148162929177975" fill="#000000" cx="21.5" cy="24.5"></circle><circle opacity="0" r="0.5129572245679108" fill="#000000" cx="22.5" cy="1.5"></circle><circle opacity="0" r="0.46056669729695077" fill="#000000" cx="22.5" cy="5.5"></circle><circle opacity="0" r="0.4340359701245295" fill="#000000" cx="22.5" cy="7.5"></circle><circle opacity="0" r="0.42275918929646644" fill="#000000" cx="22.5" cy="8.5"></circle><circle opacity="0" r="0.41346322998426127" fill="#000000" cx="22.5" cy="9.5"></circle><circle opacity="1" r="0.4065348816787332" fill="#000000" cx="22.5" cy="10.5"></circle><circle opacity="1" r="0.4022604760803843" fill="#000000" cx="22.5" cy="11.5"></circle><circle opacity="1" r="0.4008159015845232" fill="#000000" cx="22.5" cy="12.5"></circle><circle opacity="0" r="0.4022604760803843" fill="#000000" cx="22.5" cy="13.5"></circle><circle opacity="0" r="0.4065348816787332" fill="#000000" cx="22.5" cy="14.5"></circle><circle opacity="0" r="0.41346322998426127" fill="#000000" cx="22.5" cy="15.5"></circle><circle opacity="0" r="0.42275918929646644" fill="#000000" cx="22.5" cy="16.5"></circle><circle opacity="1" r="0.4340359701245295" fill="#000000" cx="22.5" cy="17.5"></circle><circle opacity="0" r="0.4468198370347908" fill="#000000" cx="22.5" cy="18.5"></circle><circle opacity="0" r="0.46056669729695077" fill="#000000" cx="22.5" cy="19.5"></circle><circle opacity="0" r="0.4746812138916434" fill="#000000" cx="22.5" cy="20.5"></circle><circle opacity="1" r="0.4885378055499088" fill="#000000" cx="22.5" cy="21.5"></circle><circle opacity="1" r="0.5015028323958246" fill="#000000" cx="22.5" cy="22.5"></circle><circle opacity="0" r="0.5129572245679108" fill="#000000" cx="22.5" cy="23.5"></circle><circle opacity="1" r="0.5223187942744041" fill="#000000" cx="22.5" cy="24.5"></circle><circle opacity="0" r="0.5216294143147086" fill="#000000" cx="23.5" cy="1.5"></circle><circle opacity="0" r="0.5129572245679108" fill="#000000" cx="23.5" cy="2.5"></circle><circle opacity="0" r="0.502720199249755" fill="#000000" cx="23.5" cy="3.5"></circle><circle opacity="0" r="0.4914825297043177" fill="#000000" cx="23.5" cy="4.5"></circle><circle opacity="0" r="0.47982455889422254" fill="#000000" cx="23.5" cy="5.5"></circle><circle opacity="0" r="0.45752192543078607" fill="#000000" cx="23.5" cy="7.5"></circle><circle opacity="0" r="0.4479288846965475" fill="#000000" cx="23.5" cy="8.5"></circle><circle opacity="0" r="0.4399807488477777" fill="#000000" cx="23.5" cy="9.5"></circle><circle opacity="0" r="0.4340359701245295" fill="#000000" cx="23.5" cy="10.5"></circle><circle opacity="1" r="0.43036014239472364" fill="#000000" cx="23.5" cy="11.5"></circle><circle opacity="0" r="0.4291165100190276" fill="#000000" cx="23.5" cy="12.5"></circle><circle opacity="0" r="0.43036014239472364" fill="#000000" cx="23.5" cy="13.5"></circle><circle opacity="1" r="0.4340359701245295" fill="#000000" cx="23.5" cy="14.5"></circle><circle opacity="0" r="0.4399807488477777" fill="#000000" cx="23.5" cy="15.5"></circle><circle opacity="1" r="0.4479288846965475" fill="#000000" cx="23.5" cy="16.5"></circle><circle opacity="1" r="0.45752192543078607" fill="#000000" cx="23.5" cy="17.5"></circle><circle opacity="1" r="0.46832139782653237" fill="#000000" cx="23.5" cy="18.5"></circle><circle opacity="1" r="0.47982455889422254" fill="#000000" cx="23.5" cy="19.5"></circle><circle opacity="1" r="0.4914825297043177" fill="#000000" cx="23.5" cy="20.5"></circle><circle opacity="0" r="0.502720199249755" fill="#000000" cx="23.5" cy="21.5"></circle><circle opacity="0" r="0.5129572245679108" fill="#000000" cx="23.5" cy="22.5"></circle><circle opacity="0" r="0.5216294143147086" fill="#000000" cx="23.5" cy="23.5"></circle><circle opacity="1" r="0.528209767446446" fill="#000000" cx="23.5" cy="24.5"></circle><circle opacity="0" r="0.4789867770841846" fill="#000000" cx="24.5" cy="7.5"></circle><circle opacity="1" r="0.47109500277118854" fill="#000000" cx="24.5" cy="8.5"></circle><circle opacity="0" r="0.4645097825490739" fill="#000000" cx="24.5" cy="9.5"></circle><circle opacity="1" r="0.459560154065227" fill="#000000" cx="24.5" cy="10.5"></circle><circle opacity="0" r="0.4564901780488918" fill="#000000" cx="24.5" cy="11.5"></circle><circle opacity="0" r="0.4554499671779924" fill="#000000" cx="24.5" cy="12.5"></circle><circle opacity="1" r="0.4564901780488918" fill="#000000" cx="24.5" cy="13.5"></circle><circle opacity="1" r="0.459560154065227" fill="#000000" cx="24.5" cy="14.5"></circle><circle opacity="0" r="0.4645097825490739" fill="#000000" cx="24.5" cy="15.5"></circle><circle opacity="1" r="0.47109500277118854" fill="#000000" cx="24.5" cy="16.5"></circle><circle opacity="1" r="0.4789867770841846" fill="#000000" cx="24.5" cy="17.5"></circle><circle opacity="1" r="0.4877832190422833" fill="#000000" cx="24.5" cy="18.5"></circle><circle opacity="0" r="0.49702446422044255" fill="#000000" cx="24.5" cy="19.5"></circle><circle opacity="0" r="0.506209774991048" fill="#000000" cx="24.5" cy="20.5"></circle><circle opacity="1" r="0.5148162929177975" fill="#000000" cx="24.5" cy="21.5"></circle><circle opacity="0" r="0.5223187942744041" fill="#000000" cx="24.5" cy="22.5"></circle><circle opacity="0" r="0.528209767446446" fill="#000000" cx="24.5" cy="23.5"></circle><circle opacity="1" r="0.5320191168857463" fill="#000000" cx="24.5" cy="24.5"></circle></svg>