<?xml version="1.0" encoding="utf-8"?>
 <!DOCTYPE svg PUBLIC "-//W3C//DTD SVG 20010904//EN" "http://www.w3.org/TR/2001/REC-SVG-20010904/DTD/svg10.dtd">
<svg class="Qr-item-svg" width="100%" height="100%" viewBox="-5 -5 35 35" fill="white" xmlns="http://www.w3.org/2000/svg" xmlns:xlink="http://www.w3.org/1999/xlink"><circle opacity="1" fill="#000000" cx="0.5" cy="9.5" r="0.30903506515775037"></circle><circle opacity="1" fill="#000000" cx="0.5" cy="14.5" r="0.24093362054183814"></circle><circle opacity="1" fill="#000000" cx="0.5" cy="15.5" r="0.3143972479423868"></circle><circle opacity="1" fill="#000000" cx="0.5" cy="16.5" r="0.1995957004458162"></circle><circle opacity="1" fill="#000000" cx="1.5" cy="8.5" r="0.4104024348422496"></circle><circle opacity="1" fill="#000000" cx="1.5" cy="9.5" r="0.3688390560699588"></circle><circle opacity="1" fill="#000000" cx="1.5" cy="10.5" r="0.37785309499314124"></circle><circle opacity="1" fill="#000000" cx="1.5" cy="13.5" r="0.46742911951303145"></circle><circle opacity="1" fill="#000000" cx="1.5" cy="14.5" r="0.46903317901234565"></circle><circle opacity="1" fill="#000000" cx="1.5" cy="16.5" r="0.313390582133059"></circle><circle opacity="1" fill="#000000" cx="2.5" cy="8.5" r="0.21659700788751715"></circle><circle opacity="1" fill="#000000" cx="2.5" cy="9.5" r="0.4195629501028806"></circle><circle opacity="1" fill="#000000" cx="2.5" cy="13.5" r="0.48079149519890263"></circle><circle opacity="1" fill="#000000" cx="2.5" cy="15.5" r="0.4674894332990398"></circle><circle opacity="1" fill="#000000" cx="2.5" cy="16.5" r="0.3600117026748971"></circle><circle fill="#000000" cx="3.5" cy="3.5" r="1.5"></circle><circle fill="none" stroke-width="0.15" stroke-dasharray="0.5,0.5" stroke="#000000" cx="3.5" cy="3.5" r="3"></circle><circle fill="#000000" cx="6.5" cy="3.5" r="0.5"></circle><circle fill="#000000" cx="0.5" cy="3.5" r="0.5"></circle><circle fill="#000000" cx="3.5" cy="6.5" r="0.5"></circle><circle fill="#000000" cx="3.5" cy="0.5" r="0.5"></circle><circle opacity="1" fill="#000000" cx="3.5" cy="8.5" r="0.3496391675240055"></circle><circle opacity="1" fill="#000000" cx="3.5" cy="9.5" r="0.35468972908093277"></circle><circle opacity="1" fill="#000000" cx="3.5" cy="11.5" r="0.42996277006172834"></circle><circle opacity="1" fill="#000000" cx="3.5" cy="15.5" r="0.39451693244170094"></circle><circle opacity="1" fill="#000000" cx="3.5" cy="16.5" r="0.3527812285665295"></circle><circle fill="#000000" cx="3.5" cy="21.5" r="1.5"></circle><circle fill="none" stroke-width="0.15" stroke-dasharray="0.5,0.5" stroke="#000000" cx="3.5" cy="21.5" r="3"></circle><circle fill="#000000" cx="6.5" cy="21.5" r="0.5"></circle><circle fill="#000000" cx="0.5" cy="21.5" r="0.5"></circle><circle fill="#000000" cx="3.5" cy="24.5" r="0.5"></circle><circle fill="#000000" cx="3.5" cy="18.5" r="0.5"></circle><circle opacity="1" fill="#000000" cx="4.5" cy="10.5" r="0.43399948559670787"></circle><circle opacity="1" fill="#000000" cx="4.5" cy="12.5" r="0.42000812328532233"></circle><circle opacity="1" fill="#000000" cx="4.5" cy="16.5" r="0.26634726508916323"></circle><circle opacity="1" fill="#000000" cx="5.5" cy="11.5" r="0.17670518261316873"></circle><circle opacity="1" fill="#000000" cx="5.5" cy="12.5" r="0.23069607338820303"></circle><circle opacity="1" fill="#000000" cx="5.5" cy="16.5" r="0.23497117198216735"></circle><circle opacity="1" fill="#000000" cx="6.5" cy="8.5" r="0.4"></circle><circle opacity="1" fill="#000000" cx="6.5" cy="10.5" r="0.4"></circle><circle opacity="1" fill="#000000" cx="6.5" cy="12.5" r="0.4"></circle><circle opacity="1" fill="#000000" cx="6.5" cy="14.5" r="0.4"></circle><circle opacity="1" fill="#000000" cx="6.5" cy="16.5" r="0.4"></circle><circle opacity="1" fill="#000000" cx="7.5" cy="8.5" r="0.4676631944444444"></circle><circle opacity="1" fill="#000000" cx="7.5" cy="9.5" r="0.30116411608367627"></circle><circle opacity="1" fill="#000000" cx="7.5" cy="11.5" r="0.3982362825788751"></circle><circle opacity="1" fill="#000000" cx="7.5" cy="14.5" r="0.4414568544238683"></circle><circle opacity="1" fill="#000000" cx="7.5" cy="15.5" r="0.4359955847050755"></circle><circle opacity="1" fill="#000000" cx="7.5" cy="16.5" r="0.22572593021262002"></circle><circle opacity="1" fill="#000000" cx="8.5" cy="0.5" r="0.23766949588477365"></circle><circle opacity="1" fill="#000000" cx="8.5" cy="6.5" r="0.4"></circle><circle opacity="1" fill="#000000" cx="8.5" cy="8.5" r="0.4397738125857339"></circle><circle opacity="1" fill="#000000" cx="8.5" cy="11.5" r="0.19202344821673525"></circle><circle opacity="1" fill="#000000" cx="8.5" cy="12.5" r="0.3308844521604938"></circle><circle opacity="1" fill="#000000" cx="8.5" cy="17.5" r="0.4520821330589849"></circle><circle opacity="1" fill="#000000" cx="8.5" cy="18.5" r="0.4367121699245542"></circle><circle opacity="1" fill="#000000" cx="8.5" cy="21.5" r="0.19068505658436213"></circle><circle opacity="1" fill="#000000" cx="8.5" cy="22.5" r="0.27750387945816185"></circle><circle opacity="1" fill="#000000" cx="8.5" cy="23.5" r="0.42937542866941014"></circle><circle opacity="1" fill="#000000" cx="9.5" cy="0.5" r="0.29165464248971196"></circle><circle opacity="1" fill="#000000" cx="9.5" cy="3.5" r="0.3906223851165981"></circle><circle opacity="1" fill="#000000" cx="9.5" cy="7.5" r="0.30959655778463646"></circle><circle opacity="1" fill="#000000" cx="9.5" cy="9.5" r="0.4383765432098765"></circle><circle opacity="1" fill="#000000" cx="9.5" cy="13.5" r="0.26102098336762686"></circle><circle opacity="1" fill="#000000" cx="9.5" cy="15.5" r="0.21695889060356652"></circle><circle opacity="1" fill="#000000" cx="9.5" cy="17.5" r="0.4354340920781893"></circle><circle opacity="1" fill="#000000" cx="9.5" cy="19.5" r="0.3632830075445816"></circle><circle opacity="1" fill="#000000" cx="9.5" cy="20.5" r="0.29104576045953356"></circle><circle opacity="1" fill="#000000" cx="9.5" cy="21.5" r="0.42241062242798355"></circle><circle opacity="1" fill="#000000" cx="9.5" cy="22.5" r="0.1669917909807956"></circle><circle opacity="1" fill="#000000" cx="9.5" cy="23.5" r="0.33644050068587106"></circle><circle opacity="1" fill="#000000" cx="10.5" cy="0.5" r="0.2038894675925926"></circle><circle opacity="1" fill="#000000" cx="10.5" cy="1.5" r="0.4817306670096022"></circle><circle opacity="1" fill="#000000" cx="10.5" cy="2.5" r="0.4927264446159122"></circle><circle opacity="1" fill="#000000" cx="10.5" cy="3.5" r="0.2544539609053498"></circle><circle opacity="1" fill="#000000" cx="10.5" cy="5.5" r="0.44208296896433463"></circle><circle opacity="1" fill="#000000" cx="10.5" cy="6.5" r="0.4"></circle><circle opacity="1" fill="#000000" cx="10.5" cy="7.5" r="0.2294869255829904"></circle><circle opacity="1" fill="#000000" cx="10.5" cy="10.5" r="0.37868743569958846"></circle><circle opacity="1" fill="#000000" cx="10.5" cy="11.5" r="0.18763203017832647"></circle><circle opacity="1" fill="#000000" cx="10.5" cy="13.5" r="0.35630527692043895"></circle><circle opacity="1" fill="#000000" cx="10.5" cy="14.5" r="0.38117322530864195"></circle><circle opacity="1" fill="#000000" cx="10.5" cy="15.5" r="0.19296118398491086"></circle><circle opacity="1" fill="#000000" cx="10.5" cy="16.5" r="0.3427648319615912"></circle><circle opacity="1" fill="#000000" cx="10.5" cy="18.5" r="0.4014946630658436"></circle><circle opacity="1" fill="#000000" cx="10.5" cy="19.5" r="0.2626537637174211"></circle><circle opacity="1" fill="#000000" cx="10.5" cy="21.5" r="0.32844892403978054"></circle><circle opacity="1" fill="#000000" cx="10.5" cy="23.5" r="0.24423508230452673"></circle><circle opacity="1" fill="#000000" cx="10.5" cy="24.5" r="0.20129310270919068"></circle><circle opacity="1" fill="#000000" cx="11.5" cy="0.5" r="0.4529408864883402"></circle><circle opacity="1" fill="#000000" cx="11.5" cy="1.5" r="0.3839778163580247"></circle><circle opacity="1" fill="#000000" cx="11.5" cy="3.5" r="0.4834625342935528"></circle><circle opacity="1" fill="#000000" cx="11.5" cy="5.5" r="0.1858240526406036"></circle><circle opacity="1" fill="#000000" cx="11.5" cy="7.5" r="0.29030619855967077"></circle><circle opacity="1" fill="#000000" cx="11.5" cy="9.5" r="0.24374539180384086"></circle><circle opacity="1" fill="#000000" cx="11.5" cy="11.5" r="0.336681755829904"></circle><circle opacity="1" fill="#000000" cx="11.5" cy="12.5" r="0.43780356224279826"></circle><circle opacity="1" fill="#000000" cx="11.5" cy="13.5" r="0.29172500857338823"></circle><circle opacity="1" fill="#000000" cx="11.5" cy="15.5" r="0.37509732938957474"></circle><circle opacity="1" fill="#000000" cx="11.5" cy="21.5" r="0.29605324074074074"></circle><circle opacity="1" fill="#000000" cx="11.5" cy="24.5" r="0.43198471793552806"></circle><circle opacity="1" fill="#000000" cx="12.5" cy="1.5" r="0.44065410665294924"></circle><circle opacity="1" fill="#000000" cx="12.5" cy="2.5" r="0.3396385673868313"></circle><circle opacity="1" fill="#000000" cx="12.5" cy="6.5" r="0.4"></circle><circle opacity="1" fill="#000000" cx="12.5" cy="7.5" r="0.46910785322359394"></circle><circle opacity="1" fill="#000000" cx="12.5" cy="10.5" r="0.33793542095336077"></circle><circle opacity="1" fill="#000000" cx="12.5" cy="12.5" r="0.3731428755144033"></circle><circle opacity="1" fill="#000000" cx="12.5" cy="13.5" r="0.20767774777091907"></circle><circle opacity="1" fill="#000000" cx="12.5" cy="15.5" r="0.20652460562414265"></circle><circle opacity="1" fill="#000000" cx="12.5" cy="16.5" r="0.20114949845679014"></circle><circle opacity="1" fill="#000000" cx="12.5" cy="18.5" r="0.4572777349108368"></circle><circle opacity="1" fill="#000000" cx="12.5" cy="24.5" r="0.18600499399862827"></circle><circle opacity="1" fill="#000000" cx="13.5" cy="0.5" r="0.29824176954732506"></circle><circle opacity="1" fill="#000000" cx="13.5" cy="1.5" r="0.35249114797668035"></circle><circle opacity="1" fill="#000000" cx="13.5" cy="3.5" r="0.41595991941015087"></circle><circle opacity="1" fill="#000000" cx="13.5" cy="5.5" r="0.46900302211934153"></circle><circle opacity="1" fill="#000000" cx="13.5" cy="8.5" r="0.36790132030178324"></circle><circle opacity="1" fill="#000000" cx="13.5" cy="15.5" r="0.3659727151920439"></circle><circle opacity="1" fill="#000000" cx="13.5" cy="16.5" r="0.18301658950617283"></circle><circle opacity="1" fill="#000000" cx="13.5" cy="19.5" r="0.30809158521947877"></circle><circle opacity="1" fill="#000000" cx="13.5" cy="23.5" r="0.1756267146776406"></circle><circle opacity="1" fill="#000000" cx="14.5" cy="0.5" r="0.24986580504115224"></circle><circle opacity="1" fill="#000000" cx="14.5" cy="3.5" r="0.3126452760631001"></circle><circle opacity="1" fill="#000000" cx="14.5" cy="5.5" r="0.31950525120027434"></circle><circle opacity="1" fill="#000000" cx="14.5" cy="6.5" r="0.4"></circle><circle opacity="1" fill="#000000" cx="14.5" cy="9.5" r="0.47413400205761314"></circle><circle opacity="1" fill="#000000" cx="14.5" cy="10.5" r="0.1861457261659808"></circle><circle opacity="1" fill="#000000" cx="14.5" cy="11.5" r="0.2671916580932785"></circle><circle opacity="1" fill="#000000" cx="14.5" cy="12.5" r="0.3254045138888889"></circle><circle opacity="1" fill="#000000" cx="14.5" cy="15.5" r="0.4031762688614541"></circle><circle opacity="1" fill="#000000" cx="14.5" cy="18.5" r="0.4932692686899862"></circle><circle opacity="1" fill="#000000" cx="14.5" cy="19.5" r="0.27826067386831277"></circle><circle opacity="1" fill="#000000" cx="14.5" cy="20.5" r="0.4333202374828532"></circle><circle opacity="1" fill="#000000" cx="14.5" cy="21.5" r="0.46732141632373114"></circle><circle opacity="1" fill="#000000" cx="14.5" cy="23.5" r="0.4722858153292181"></circle><circle opacity="1" fill="#000000" cx="14.5" cy="24.5" r="0.41616096536351166"></circle><circle opacity="1" fill="#000000" cx="15.5" cy="0.5" r="0.32893143432784633"></circle><circle opacity="1" fill="#000000" cx="15.5" cy="4.5" r="0.37706327160493824"></circle><circle opacity="1" fill="#000000" cx="15.5" cy="5.5" r="0.49128178583676263"></circle><circle opacity="1" fill="#000000" cx="15.5" cy="7.5" r="0.2176826560356653"></circle><circle opacity="1" fill="#000000" cx="15.5" cy="8.5" r="0.4671763760288066"></circle><circle opacity="1" fill="#000000" cx="15.5" cy="11.5" r="0.46326603223593965"></circle><circle opacity="1" fill="#000000" cx="15.5" cy="15.5" r="0.2731584147805213"></circle><circle opacity="1" fill="#000000" cx="15.5" cy="19.5" r="0.21220846193415638"></circle><circle opacity="1" fill="#000000" cx="15.5" cy="21.5" r="0.4716970378943758"></circle><circle opacity="1" fill="#000000" cx="15.5" cy="22.5" r="0.2999420438957476"></circle><circle opacity="1" fill="#000000" cx="15.5" cy="24.5" r="0.4217428626543209"></circle><circle opacity="1" fill="#000000" cx="16.5" cy="0.5" r="0.32115813614540467"></circle><circle opacity="1" fill="#000000" cx="16.5" cy="3.5" r="0.43761687671467764"></circle><circle opacity="1" fill="#000000" cx="16.5" cy="4.5" r="0.23036291152263375"></circle><circle opacity="1" fill="#000000" cx="16.5" cy="5.5" r="0.48623266032235934"></circle><circle opacity="1" fill="#000000" cx="16.5" cy="6.5" r="0.4"></circle><circle opacity="1" fill="#000000" cx="16.5" cy="7.5" r="0.4907662465706447"></circle><circle opacity="1" fill="#000000" cx="16.5" cy="9.5" r="0.44765194187242796"></circle><circle opacity="1" fill="#000000" cx="16.5" cy="10.5" r="0.4365039437585734"></circle><circle opacity="1" fill="#000000" cx="16.5" cy="11.5" r="0.2639734867969822"></circle><circle opacity="1" fill="#000000" cx="16.5" cy="16.5" r="0.4"></circle><circle opacity="1" fill="#000000" cx="16.5" cy="17.5" r="0.4"></circle><circle opacity="1" fill="#000000" cx="16.5" cy="18.5" r="0.4"></circle><circle opacity="1" fill="#000000" cx="16.5" cy="19.5" r="0.4"></circle><circle opacity="1" fill="#000000" cx="16.5" cy="20.5" r="0.4"></circle><circle opacity="1" fill="#000000" cx="16.5" cy="22.5" r="0.20819328703703704"></circle><circle opacity="1" fill="#000000" cx="17.5" cy="8.5" r="0.31155531978737994"></circle><circle opacity="1" fill="#000000" cx="17.5" cy="9.5" r="0.2318219307270233"></circle><circle opacity="1" fill="#000000" cx="17.5" cy="12.5" r="0.32157028034979424"></circle><circle opacity="1" fill="#000000" cx="17.5" cy="13.5" r="0.2509701217421125"></circle><circle opacity="1" fill="#000000" cx="17.5" cy="14.5" r="0.1988949116941015"></circle><circle opacity="1" fill="#000000" cx="17.5" cy="16.5" r="0.4"></circle><circle opacity="1" fill="#000000" cx="17.5" cy="20.5" r="0.4"></circle><circle opacity="1" fill="#000000" cx="18.5" cy="11.5" r="0.25736625514403294"></circle><circle opacity="1" fill="#000000" cx="18.5" cy="16.5" r="0.4"></circle><circle opacity="1" fill="#000000" cx="18.5" cy="18.5" r="0.4"></circle><circle opacity="1" fill="#000000" cx="18.5" cy="20.5" r="0.4"></circle><circle opacity="1" fill="#000000" cx="18.5" cy="24.5" r="0.3943316829561042"></circle><circle opacity="1" fill="#000000" cx="19.5" cy="9.5" r="0.3047757630315501"></circle><circle opacity="1" fill="#000000" cx="19.5" cy="12.5" r="0.49016454475308635"></circle><circle opacity="1" fill="#000000" cx="19.5" cy="13.5" r="0.21122333676268862"></circle><circle opacity="1" fill="#000000" cx="19.5" cy="16.5" r="0.4"></circle><circle opacity="1" fill="#000000" cx="19.5" cy="20.5" r="0.4"></circle><circle opacity="1" fill="#000000" cx="19.5" cy="23.5" r="0.35404781807270236"></circle><circle opacity="1" fill="#000000" cx="19.5" cy="24.5" r="0.48954848251028804"></circle><circle opacity="1" fill="#000000" cx="20.5" cy="12.5" r="0.1762284164951989"></circle><circle opacity="1" fill="#000000" cx="20.5" cy="14.5" r="0.4862944101508916"></circle><circle opacity="1" fill="#000000" cx="20.5" cy="15.5" r="0.3951014017489712"></circle><circle opacity="1" fill="#000000" cx="20.5" cy="16.5" r="0.4"></circle><circle opacity="1" fill="#000000" cx="20.5" cy="17.5" r="0.4"></circle><circle opacity="1" fill="#000000" cx="20.5" cy="18.5" r="0.4"></circle><circle opacity="1" fill="#000000" cx="20.5" cy="19.5" r="0.4"></circle><circle opacity="1" fill="#000000" cx="20.5" cy="20.5" r="0.4"></circle><circle opacity="1" fill="#000000" cx="20.5" cy="22.5" r="0.4289302554869684"></circle><circle opacity="1" fill="#000000" cx="20.5" cy="24.5" r="0.1710988725994513"></circle><circle fill="#000000" cx="21.5" cy="3.5" r="1.5"></circle><circle fill="none" stroke-width="0.15" stroke-dasharray="0.5,0.5" stroke="#000000" cx="21.5" cy="3.5" r="3"></circle><circle fill="#000000" cx="24.5" cy="3.5" r="0.5"></circle><circle fill="#000000" cx="18.5" cy="3.5" r="0.5"></circle><circle fill="#000000" cx="21.5" cy="6.5" r="0.5"></circle><circle fill="#000000" cx="21.5" cy="0.5" r="0.5"></circle><circle opacity="1" fill="#000000" cx="21.5" cy="14.5" r="0.3464066358024691"></circle><circle opacity="1" fill="#000000" cx="21.5" cy="17.5" r="0.4389121870713306"></circle><circle opacity="1" fill="#000000" cx="21.5" cy="18.5" r="0.2180445387517147"></circle><circle opacity="1" fill="#000000" cx="21.5" cy="23.5" r="0.48304751800411516"></circle><circle opacity="1" fill="#000000" cx="21.5" cy="24.5" r="0.3457575445816186"></circle><circle opacity="1" fill="#000000" cx="22.5" cy="10.5" r="0.4317147419410151"></circle><circle opacity="1" fill="#000000" cx="22.5" cy="11.5" r="0.2746073816872428"></circle><circle opacity="1" fill="#000000" cx="22.5" cy="12.5" r="0.28904966135116594"></circle><circle opacity="1" fill="#000000" cx="22.5" cy="17.5" r="0.28169281550068587"></circle><circle opacity="1" fill="#000000" cx="22.5" cy="21.5" r="0.1956695601851852"></circle><circle opacity="1" fill="#000000" cx="22.5" cy="22.5" r="0.40837187071330583"></circle><circle opacity="1" fill="#000000" cx="22.5" cy="24.5" r="0.24256209276406035"></circle><circle opacity="1" fill="#000000" cx="23.5" cy="11.5" r="0.38581738683127575"></circle><circle opacity="1" fill="#000000" cx="23.5" cy="14.5" r="0.17330750600137174"></circle><circle opacity="1" fill="#000000" cx="23.5" cy="16.5" r="0.45390590706447187"></circle><circle opacity="1" fill="#000000" cx="23.5" cy="17.5" r="0.3146341949588477"></circle><circle opacity="1" fill="#000000" cx="23.5" cy="18.5" r="0.3934399005486968"></circle><circle opacity="1" fill="#000000" cx="23.5" cy="19.5" r="0.38530759173525375"></circle><circle opacity="1" fill="#000000" cx="23.5" cy="20.5" r="0.45670331790123453"></circle><circle opacity="1" fill="#000000" cx="23.5" cy="24.5" r="0.20335238768861455"></circle><circle opacity="1" fill="#000000" cx="24.5" cy="8.5" r="0.17635048010973936"></circle><circle opacity="1" fill="#000000" cx="24.5" cy="10.5" r="0.28160808899176953"></circle><circle opacity="1" fill="#000000" cx="24.5" cy="13.5" r="0.41262830075445817"></circle><circle opacity="1" fill="#000000" cx="24.5" cy="14.5" r="0.301617905521262"></circle><circle opacity="1" fill="#000000" cx="24.5" cy="16.5" r="0.263931841563786"></circle><circle opacity="1" fill="#000000" cx="24.5" cy="17.5" r="0.49085097307956105"></circle><circle opacity="1" fill="#000000" cx="24.5" cy="18.5" r="0.23069320130315502"></circle><circle opacity="1" fill="#000000" cx="24.5" cy="21.5" r="0.2082579089506173"></circle><circle opacity="1" fill="#000000" cx="24.5" cy="24.5" r="0.2426037379972565"></circle></svg>