<?xml version="1.0" encoding="utf-8"?>
 <!DOCTYPE svg PUBLIC "-//W3C//DTD SVG 20010904//EN" "http://www.w3.org/TR/2001/REC-SVG-20010904/DTD/svg10.dtd">
<svg class="Qr-item-svg" width="100%" height="100%" viewBox="-5 -5 35 35" fill="white" xmlns="http://www.w3.org/2000/svg" xmlns:xlink="http://www.w3.org/1999/xlink"><rect width="1" height="1" fill="#000000" x="0" y="0"></rect><rect width="1" height="1" fill="#000000" x="0" y="1"></rect><rect width="1" height="1" fill="#000000" x="0" y="2"></rect><rect width="1" height="1" fill="#000000" x="0" y="3"></rect><rect width="1" height="1" fill="#000000" x="0" y="4"></rect><rect width="1" height="1" fill="#000000" x="0" y="5"></rect><rect width="1" height="1" fill="#000000" x="0" y="6"></rect><line opacity="1" x1="0.5" y1="9.5" x2="1.5" y2="8.5" stroke-width="0.178546917866941" stroke="#000000" stroke-linecap="round"></line><line opacity="1" x1="0.5" y1="9.5" x2="1.5" y2="10.5" stroke-width="0.17686428326474624" stroke="#000000" stroke-linecap="round"></line><circle opacity="1" r="0.2084500385802469" fill="#000000" cx="0.5" cy="9.5"></circle><line opacity="1" x1="0.5" y1="14.5" x2="1.5" y2="13.5" stroke-width="0.11124978566529492" stroke="#000000" stroke-linecap="round"></line><circle opacity="1" r="0.40315850051440333" fill="#000000" cx="0.5" cy="14.5"></circle><line opacity="1" x1="0.5" y1="15.5" x2="2.5" y2="13.5" stroke-width="0.1686033950617284" stroke="#000000" stroke-linecap="round"></line><line opacity="1" x1="0.5" y1="15.5" x2="1.5" y2="16.5" stroke-width="0.09215867198216735" stroke="#000000" stroke-linecap="round"></line><circle opacity="1" r="0.21351401748971194" fill="#000000" cx="0.5" cy="15.5"></circle><circle opacity="1" r="0.29910320216049385" fill="#000000" cx="0.5" cy="16.5"></circle><rect width="1" height="1" fill="#000000" x="0" y="18"></rect><rect width="1" height="1" fill="#000000" x="0" y="19"></rect><rect width="1" height="1" fill="#000000" x="0" y="20"></rect><rect width="1" height="1" fill="#000000" x="0" y="21"></rect><rect width="1" height="1" fill="#000000" x="0" y="22"></rect><rect width="1" height="1" fill="#000000" x="0" y="23"></rect><rect width="1" height="1" fill="#000000" x="0" y="24"></rect><rect width="1" height="1" fill="#000000" x="1" y="0"></rect><rect width="1" height="1" fill="#000000" x="1" y="6"></rect><line opacity="1" x1="1.5" y1="8.5" x2="2.5" y2="9.5" stroke-width="0.19419024348422495" stroke="#000000" stroke-linecap="round"></line><circle opacity="1" r="0.16570981224279835" fill="#000000" cx="1.5" cy="8.5"></circle><line opacity="1" x1="1.5" y1="9.5" x2="2.5" y2="8.5" stroke-width="0.14081854423868312" stroke="#000000" stroke-linecap="round"></line><circle opacity="1" r="0.27128247170781894" fill="#000000" cx="1.5" cy="9.5"></circle><line opacity="1" x1="1.5" y1="10.5" x2="3.5" y2="8.5" stroke-width="0.20609396433470506" stroke="#000000" stroke-linecap="round"></line><circle opacity="1" r="0.3554508101851852" fill="#000000" cx="1.5" cy="10.5"></circle><circle opacity="1" r="0.33321206275720167" fill="#000000" cx="1.5" cy="13.5"></circle><line opacity="1" x1="1.5" y1="14.5" x2="3.5" y2="16.5" stroke-width="0.21968031978737995" stroke="#000000" stroke-linecap="round"></line><circle opacity="1" r="0.3826350308641976" fill="#000000" cx="1.5" cy="14.5"></circle><line opacity="1" x1="1.5" y1="16.5" x2="2.5" y2="15.5" stroke-width="0.20618773576817556" stroke="#000000" stroke-linecap="round"></line><circle opacity="1" r="0.3508388631687243" fill="#000000" cx="1.5" cy="16.5"></circle><rect width="1" height="1" fill="#000000" x="1" y="18"></rect><rect width="1" height="1" fill="#000000" x="1" y="24"></rect><rect width="1" height="1" fill="#000000" x="2" y="0"></rect><rect width="1" height="1" fill="#000000" x="2" y="2"></rect><rect width="1" height="1" fill="#000000" x="2" y="3"></rect><rect width="1" height="1" fill="#000000" x="2" y="4"></rect><rect width="1" height="1" fill="#000000" x="2" y="6"></rect><line opacity="1" x1="2.5" y1="8.5" x2="6.5" y2="12.5" stroke-width="0.08881140689300411" stroke="#000000" stroke-linecap="round"></line><circle opacity="1" r="0.24134207818930042" fill="#000000" cx="2.5" cy="8.5"></circle><circle opacity="1" r="0.34789576903292185" fill="#000000" cx="2.5" cy="9.5"></circle><circle opacity="1" r="0.17377430555555556" fill="#000000" cx="2.5" cy="13.5"></circle><circle opacity="1" r="0.3250425025720165" fill="#000000" cx="2.5" cy="15.5"></circle><line opacity="1" x1="2.5" y1="16.5" x2="3.5" y2="15.5" stroke-width="0.11217549725651577" stroke="#000000" stroke-linecap="round"></line><circle opacity="1" r="0.17522935956790126" fill="#000000" cx="2.5" cy="16.5"></circle><rect width="1" height="1" fill="#000000" x="2" y="18"></rect><rect width="1" height="1" fill="#000000" x="2" y="20"></rect><rect width="1" height="1" fill="#000000" x="2" y="21"></rect><rect width="1" height="1" fill="#000000" x="2" y="22"></rect><rect width="1" height="1" fill="#000000" x="2" y="24"></rect><rect width="1" height="1" fill="#000000" x="3" y="0"></rect><rect width="1" height="1" fill="#000000" x="3" y="2"></rect><rect width="1" height="1" fill="#000000" x="3" y="3"></rect><rect width="1" height="1" fill="#000000" x="3" y="4"></rect><rect width="1" height="1" fill="#000000" x="3" y="6"></rect><circle opacity="1" r="0.17849987139917697" fill="#000000" cx="3.5" cy="8.5"></circle><circle opacity="1" r="0.3875304140946502" fill="#000000" cx="3.5" cy="9.5"></circle><line opacity="1" x1="3.5" y1="11.5" x2="4.5" y2="10.5" stroke-width="0.16440843621399176" stroke="#000000" stroke-linecap="round"></line><line opacity="1" x1="3.5" y1="11.5" x2="4.5" y2="12.5" stroke-width="0.09984642918381344" stroke="#000000" stroke-linecap="round"></line><circle opacity="1" r="0.3826081532921811" fill="#000000" cx="3.5" cy="11.5"></circle><line opacity="1" x1="3.5" y1="15.5" x2="4.5" y2="16.5" stroke-width="0.22768614969135803" stroke="#000000" stroke-linecap="round"></line><circle opacity="1" r="0.23968544238683132" fill="#000000" cx="3.5" cy="15.5"></circle><circle opacity="1" r="0.32952617026748976" fill="#000000" cx="3.5" cy="16.5"></circle><rect width="1" height="1" fill="#000000" x="3" y="18"></rect><rect width="1" height="1" fill="#000000" x="3" y="20"></rect><rect width="1" height="1" fill="#000000" x="3" y="21"></rect><rect width="1" height="1" fill="#000000" x="3" y="22"></rect><rect width="1" height="1" fill="#000000" x="3" y="24"></rect><rect width="1" height="1" fill="#000000" x="4" y="0"></rect><rect width="1" height="1" fill="#000000" x="4" y="2"></rect><rect width="1" height="1" fill="#000000" x="4" y="3"></rect><rect width="1" height="1" fill="#000000" x="4" y="4"></rect><rect width="1" height="1" fill="#000000" x="4" y="6"></rect><circle opacity="1" r="0.31813618827160495" fill="#000000" cx="4.5" cy="10.5"></circle><line opacity="1" x1="4.5" y1="12.5" x2="11.5" y2="5.5" stroke-width="0.2192452203360768" stroke="#000000" stroke-linecap="round"></line><circle opacity="1" r="0.34703446502057617" fill="#000000" cx="4.5" cy="12.5"></circle><circle opacity="1" r="0.4277856867283951" fill="#000000" cx="4.5" cy="16.5"></circle><rect width="1" height="1" fill="#000000" x="4" y="18"></rect><rect width="1" height="1" fill="#000000" x="4" y="20"></rect><rect width="1" height="1" fill="#000000" x="4" y="21"></rect><rect width="1" height="1" fill="#000000" x="4" y="22"></rect><rect width="1" height="1" fill="#000000" x="4" y="24"></rect><rect width="1" height="1" fill="#000000" x="5" y="0"></rect><rect width="1" height="1" fill="#000000" x="5" y="6"></rect><circle opacity="1" r="0.2348987911522634" fill="#000000" cx="5.5" cy="11.5"></circle><circle opacity="1" r="0.2688830375514404" fill="#000000" cx="5.5" cy="12.5"></circle><circle opacity="1" r="0.29135879629629635" fill="#000000" cx="5.5" cy="16.5"></circle><rect width="1" height="1" fill="#000000" x="5" y="18"></rect><rect width="1" height="1" fill="#000000" x="5" y="24"></rect><rect width="1" height="1" fill="#000000" x="6" y="0"></rect><rect width="1" height="1" fill="#000000" x="6" y="1"></rect><rect width="1" height="1" fill="#000000" x="6" y="2"></rect><rect width="1" height="1" fill="#000000" x="6" y="3"></rect><rect width="1" height="1" fill="#000000" x="6" y="4"></rect><rect width="1" height="1" fill="#000000" x="6" y="5"></rect><rect width="1" height="1" fill="#000000" x="6" y="6"></rect><line opacity="1" x1="6.5" y1="8.5" x2="7.5" y2="9.5" stroke-width="0.23980141889574758" stroke="#000000" stroke-linecap="round"></line><circle opacity="1" r="0.21382188786008233" fill="#000000" cx="6.5" cy="8.5"></circle><line opacity="1" x1="6.5" y1="10.5" x2="12.5" y2="16.5" stroke-width="0.165634966563786" stroke="#000000" stroke-linecap="round"></line><circle opacity="1" r="0.2591399176954733" fill="#000000" cx="6.5" cy="10.5"></circle><line opacity="1" x1="6.5" y1="12.5" x2="7.5" y2="11.5" stroke-width="0.15826378172153632" stroke="#000000" stroke-linecap="round"></line><circle opacity="1" r="0.32527584876543214" fill="#000000" cx="6.5" cy="12.5"></circle><line opacity="1" x1="6.5" y1="14.5" x2="7.5" y2="15.5" stroke-width="0.2198483581961591" stroke="#000000" stroke-linecap="round"></line><circle opacity="1" r="0.3629704218106996" fill="#000000" cx="6.5" cy="14.5"></circle><line opacity="1" x1="6.5" y1="16.5" x2="7.5" y2="15.5" stroke-width="0.24884548611111107" stroke="#000000" stroke-linecap="round"></line><circle opacity="1" r="0.40740882201646095" fill="#000000" cx="6.5" cy="16.5"></circle><rect width="1" height="1" fill="#000000" x="6" y="18"></rect><rect width="1" height="1" fill="#000000" x="6" y="19"></rect><rect width="1" height="1" fill="#000000" x="6" y="20"></rect><rect width="1" height="1" fill="#000000" x="6" y="21"></rect><rect width="1" height="1" fill="#000000" x="6" y="22"></rect><rect width="1" height="1" fill="#000000" x="6" y="23"></rect><rect width="1" height="1" fill="#000000" x="6" y="24"></rect><circle opacity="1" r="0.23468010545267493" fill="#000000" cx="7.5" cy="8.5"></circle><circle opacity="1" r="0.22988734567901237" fill="#000000" cx="7.5" cy="9.5"></circle><circle opacity="1" r="0.3974286908436214" fill="#000000" cx="7.5" cy="11.5"></circle><circle opacity="1" r="0.319480066872428" fill="#000000" cx="7.5" cy="14.5"></circle><circle opacity="1" r="0.3593285108024692" fill="#000000" cx="7.5" cy="15.5"></circle><line opacity="1" x1="7.5" y1="16.5" x2="8.5" y2="17.5" stroke-width="0.09938057270233196" stroke="#000000" stroke-linecap="round"></line><circle opacity="1" r="0.16612030606995887" fill="#000000" cx="7.5" cy="16.5"></circle><circle opacity="1" r="0.38519328703703704" fill="#000000" cx="8.5" cy="0.5"></circle><line opacity="1" x1="8.5" y1="6.5" x2="9.5" y2="7.5" stroke-width="0.11674779235253771" stroke="#000000" stroke-linecap="round"></line><circle opacity="1" r="0.1783508230452675" fill="#000000" cx="8.5" cy="6.5"></circle><line opacity="1" x1="8.5" y1="8.5" x2="12.5" y2="12.5" stroke-width="0.2354054140946502" stroke="#000000" stroke-linecap="round"></line><circle opacity="1" r="0.3160299639917696" fill="#000000" cx="8.5" cy="8.5"></circle><circle opacity="1" r="0.18992161779835393" fill="#000000" cx="8.5" cy="11.5"></circle><circle opacity="1" r="0.31619367283950617" fill="#000000" cx="8.5" cy="12.5"></circle><circle opacity="1" r="0.28757761059670783" fill="#000000" cx="8.5" cy="17.5"></circle><line opacity="1" x1="8.5" y1="18.5" x2="11.5" y2="15.5" stroke-width="0.16991919581618656" stroke="#000000" stroke-linecap="round"></line><line opacity="1" x1="8.5" y1="18.5" x2="9.5" y2="19.5" stroke-width="0.08042148919753087" stroke="#000000" stroke-linecap="round"></line><circle opacity="1" r="0.26638220164609056" fill="#000000" cx="8.5" cy="18.5"></circle><line opacity="1" x1="8.5" y1="21.5" x2="10.5" y2="19.5" stroke-width="0.2199638846021948" stroke="#000000" stroke-linecap="round"></line><line opacity="1" x1="8.5" y1="21.5" x2="11.5" y2="24.5" stroke-width="0.2210718878600823" stroke="#000000" stroke-linecap="round"></line><circle opacity="1" r="0.3711937371399177" fill="#000000" cx="8.5" cy="21.5"></circle><line opacity="1" x1="8.5" y1="22.5" x2="9.5" y2="21.5" stroke-width="0.13835348079561044" stroke="#000000" stroke-linecap="round"></line><line opacity="1" x1="8.5" y1="22.5" x2="10.5" y2="24.5" stroke-width="0.13770608281893004" stroke="#000000" stroke-linecap="round"></line><circle opacity="1" r="0.4357622170781894" fill="#000000" cx="8.5" cy="22.5"></circle><line opacity="1" x1="8.5" y1="23.5" x2="10.5" y2="21.5" stroke-width="0.17300465106310012" stroke="#000000" stroke-linecap="round"></line><circle opacity="1" r="0.17027777777777778" fill="#000000" cx="8.5" cy="23.5"></circle><line opacity="1" x1="9.5" y1="0.5" x2="10.5" y2="1.5" stroke-width="0.1541108324759945" stroke="#000000" stroke-linecap="round"></line><circle opacity="1" r="0.4041297582304527" fill="#000000" cx="9.5" cy="0.5"></circle><line opacity="1" x1="9.5" y1="3.5" x2="11.5" y2="1.5" stroke-width="0.11559252829218106" stroke="#000000" stroke-linecap="round"></line><circle opacity="1" r="0.3491700102880659" fill="#000000" cx="9.5" cy="3.5"></circle><circle opacity="1" r="0.34049221965020576" fill="#000000" cx="9.5" cy="7.5"></circle><circle opacity="1" r="0.28336149691358026" fill="#000000" cx="9.5" cy="9.5"></circle><circle opacity="1" r="0.43550932355967087" fill="#000000" cx="9.5" cy="13.5"></circle><line opacity="1" x1="9.5" y1="15.5" x2="12.5" y2="12.5" stroke-width="0.12869427297668037" stroke="#000000" stroke-linecap="round"></line><line opacity="1" x1="9.5" y1="15.5" x2="10.5" y2="16.5" stroke-width="0.24741415895061725" stroke="#000000" stroke-linecap="round"></line><circle opacity="1" r="0.3866055812757202" fill="#000000" cx="9.5" cy="15.5"></circle><line opacity="1" x1="9.5" y1="17.5" x2="10.5" y2="18.5" stroke-width="0.13255840620713305" stroke="#000000" stroke-linecap="round"></line><circle opacity="1" r="0.2671396604938272" fill="#000000" cx="9.5" cy="17.5"></circle><line opacity="1" x1="9.5" y1="19.5" x2="10.5" y2="18.5" stroke-width="0.1709176740397805" stroke="#000000" stroke-linecap="round"></line><circle opacity="1" r="0.1931212705761317" fill="#000000" cx="9.5" cy="19.5"></circle><line opacity="1" x1="9.5" y1="20.5" x2="10.5" y2="21.5" stroke-width="0.241504308127572" stroke="#000000" stroke-linecap="round"></line><circle opacity="1" r="0.3580689300411523" fill="#000000" cx="9.5" cy="20.5"></circle><circle opacity="1" r="0.17434484310699588" fill="#000000" cx="9.5" cy="21.5"></circle><circle opacity="1" r="0.21661226851851853" fill="#000000" cx="9.5" cy="22.5"></circle><circle opacity="1" r="0.330936021090535" fill="#000000" cx="9.5" cy="23.5"></circle><line opacity="1" x1="10.5" y1="0.5" x2="13.5" y2="3.5" stroke-width="0.17088691700960218" stroke="#000000" stroke-linecap="round"></line><circle opacity="1" r="0.29723398919753086" fill="#000000" cx="10.5" cy="0.5"></circle><line opacity="1" x1="10.5" y1="1.5" x2="11.5" y2="0.5" stroke-width="0.19385266632373113" stroke="#000000" stroke-linecap="round"></line><circle opacity="1" r="0.18231282150205763" fill="#000000" cx="10.5" cy="1.5"></circle><line opacity="1" x1="10.5" y1="2.5" x2="11.5" y2="3.5" stroke-width="0.112934670781893" stroke="#000000" stroke-linecap="round"></line><circle opacity="1" r="0.27469103652263377" fill="#000000" cx="10.5" cy="2.5"></circle><circle opacity="1" r="0.44655722736625514" fill="#000000" cx="10.5" cy="3.5"></circle><circle opacity="1" r="0.40899826388888894" fill="#000000" cx="10.5" cy="5.5"></circle><line opacity="1" x1="10.5" y1="6.5" x2="11.5" y2="7.5" stroke-width="0.0953116426611797" stroke="#000000" stroke-linecap="round"></line><circle opacity="1" r="0.3776419110082305" fill="#000000" cx="10.5" cy="6.5"></circle><circle opacity="1" r="0.3926408179012346" fill="#000000" cx="10.5" cy="7.5"></circle><line opacity="1" x1="10.5" y1="10.5" x2="11.5" y2="9.5" stroke-width="0.12564182527434842" stroke="#000000" stroke-linecap="round"></line><circle opacity="1" r="0.37931687242798356" fill="#000000" cx="10.5" cy="10.5"></circle><line opacity="1" x1="10.5" y1="11.5" x2="12.5" y2="13.5" stroke-width="0.15571920010288065" stroke="#000000" stroke-linecap="round"></line><circle opacity="1" r="0.2566256430041153" fill="#000000" cx="10.5" cy="11.5"></circle><line opacity="1" x1="10.5" y1="13.5" x2="11.5" y2="12.5" stroke-width="0.14888813871742113" stroke="#000000" stroke-linecap="round"></line><circle opacity="1" r="0.23919675925925926" fill="#000000" cx="10.5" cy="13.5"></circle><circle opacity="1" r="0.34428440072016464" fill="#000000" cx="10.5" cy="14.5"></circle><circle opacity="1" r="0.21443762860082305" fill="#000000" cx="10.5" cy="15.5"></circle><circle opacity="1" r="0.33961014660493827" fill="#000000" cx="10.5" cy="16.5"></circle><circle opacity="1" r="0.3442001028806585" fill="#000000" cx="10.5" cy="18.5"></circle><circle opacity="1" r="0.2853834233539095" fill="#000000" cx="10.5" cy="19.5"></circle><circle opacity="1" r="0.43144714506172843" fill="#000000" cx="10.5" cy="21.5"></circle><circle opacity="1" r="0.37512274948559676" fill="#000000" cx="10.5" cy="23.5"></circle><circle opacity="1" r="0.33191949588477365" fill="#000000" cx="10.5" cy="24.5"></circle><line opacity="1" x1="11.5" y1="0.5" x2="12.5" y2="1.5" stroke-width="0.18764949845679013" stroke="#000000" stroke-linecap="round"></line><circle opacity="1" r="0.2708023405349794" fill="#000000" cx="11.5" cy="0.5"></circle><circle opacity="1" r="0.18779584619341566" fill="#000000" cx="11.5" cy="1.5"></circle><line opacity="1" x1="11.5" y1="3.5" x2="14.5" y2="0.5" stroke-width="0.10225823045267489" stroke="#000000" stroke-linecap="round"></line><circle opacity="1" r="0.43498887602880665" fill="#000000" cx="11.5" cy="3.5"></circle><line opacity="1" x1="11.5" y1="5.5" x2="12.5" y2="6.5" stroke-width="0.13134537894375858" stroke="#000000" stroke-linecap="round"></line><circle opacity="1" r="0.4179998070987655" fill="#000000" cx="11.5" cy="5.5"></circle><line opacity="1" x1="11.5" y1="7.5" x2="13.5" y2="5.5" stroke-width="0.2293882887517147" stroke="#000000" stroke-linecap="round"></line><circle opacity="1" r="0.37256938014403296" fill="#000000" cx="11.5" cy="7.5"></circle><line opacity="1" x1="11.5" y1="9.5" x2="12.5" y2="10.5" stroke-width="0.11984375" stroke="#000000" stroke-linecap="round"></line><circle opacity="1" r="0.33388278034979424" fill="#000000" cx="11.5" cy="9.5"></circle><line opacity="1" x1="11.5" y1="11.5" x2="12.5" y2="10.5" stroke-width="0.20024262688614541" stroke="#000000" stroke-linecap="round"></line><circle opacity="1" r="0.3582363040123457" fill="#000000" cx="11.5" cy="11.5"></circle><circle opacity="1" r="0.30609014917695476" fill="#000000" cx="11.5" cy="12.5"></circle><circle opacity="1" r="0.36470402520576134" fill="#000000" cx="11.5" cy="13.5"></circle><circle opacity="1" r="0.3273649691358025" fill="#000000" cx="11.5" cy="15.5"></circle><circle opacity="1" r="0.16680446244855968" fill="#000000" cx="11.5" cy="21.5"></circle><circle opacity="1" r="0.1935317644032922" fill="#000000" cx="11.5" cy="24.5"></circle><line opacity="1" x1="12.5" y1="1.5" x2="13.5" y2="0.5" stroke-width="0.13589216820987654" stroke="#000000" stroke-linecap="round"></line><circle opacity="1" r="0.3197757201646091" fill="#000000" cx="12.5" cy="1.5"></circle><circle opacity="1" r="0.25919978137860084" fill="#000000" cx="12.5" cy="2.5"></circle><circle opacity="1" r="0.2873931327160494" fill="#000000" cx="12.5" cy="6.5"></circle><line opacity="1" x1="12.5" y1="7.5" x2="14.5" y2="9.5" stroke-width="0.16634012774348422" stroke="#000000" stroke-linecap="round"></line><circle opacity="1" r="0.39545807613168726" fill="#000000" cx="12.5" cy="7.5"></circle><circle opacity="1" r="0.23079263117283952" fill="#000000" cx="12.5" cy="10.5"></circle><circle opacity="1" r="0.2674890689300412" fill="#000000" cx="12.5" cy="12.5"></circle><circle opacity="1" r="0.43605664866255145" fill="#000000" cx="12.5" cy="13.5"></circle><line opacity="1" x1="12.5" y1="15.5" x2="13.5" y2="16.5" stroke-width="0.10454475308641975" stroke="#000000" stroke-linecap="round"></line><circle opacity="1" r="0.2997311599794239" fill="#000000" cx="12.5" cy="15.5"></circle><line opacity="1" x1="12.5" y1="16.5" x2="13.5" y2="15.5" stroke-width="0.105545481824417" stroke="#000000" stroke-linecap="round"></line><circle opacity="1" r="0.3531124614197531" fill="#000000" cx="12.5" cy="16.5"></circle><line opacity="1" x1="12.5" y1="18.5" x2="16.5" y2="22.5" stroke-width="0.12365012002743483" stroke="#000000" stroke-linecap="round"></line><circle opacity="1" r="0.4202746270576132" fill="#000000" cx="12.5" cy="18.5"></circle><line opacity="1" x1="12.5" y1="24.5" x2="13.5" y2="23.5" stroke-width="0.09620434670781892" stroke="#000000" stroke-linecap="round"></line><circle opacity="1" r="0.21973617541152266" fill="#000000" cx="12.5" cy="24.5"></circle><circle opacity="1" r="0.31639403292181073" fill="#000000" cx="13.5" cy="0.5"></circle><circle opacity="1" r="0.4411267361111112" fill="#000000" cx="13.5" cy="1.5"></circle><circle opacity="1" r="0.3449990997942387" fill="#000000" cx="13.5" cy="3.5"></circle><line opacity="1" x1="13.5" y1="5.5" x2="15.5" y2="7.5" stroke-width="0.1621031592935528" stroke="#000000" stroke-linecap="round"></line><circle opacity="1" r="0.3416442901234568" fill="#000000" cx="13.5" cy="5.5"></circle><circle opacity="1" r="0.16876896862139917" fill="#000000" cx="13.5" cy="8.5"></circle><circle opacity="1" r="0.2254036779835391" fill="#000000" cx="13.5" cy="15.5"></circle><line opacity="1" x1="13.5" y1="16.5" x2="14.5" y2="15.5" stroke-width="0.16086387602880658" stroke="#000000" stroke-linecap="round"></line><circle opacity="1" r="0.3797957818930041" fill="#000000" cx="13.5" cy="16.5"></circle><line opacity="1" x1="13.5" y1="19.5" x2="14.5" y2="18.5" stroke-width="0.0908383701989026" stroke="#000000" stroke-linecap="round"></line><circle opacity="1" r="0.44945023148148155" fill="#000000" cx="13.5" cy="19.5"></circle><line opacity="1" x1="13.5" y1="23.5" x2="14.5" y2="24.5" stroke-width="0.12217603309327846" stroke="#000000" stroke-linecap="round"></line><circle opacity="1" r="0.32177443415637863" fill="#000000" cx="13.5" cy="23.5"></circle><circle opacity="1" r="0.32423861882716054" fill="#000000" cx="14.5" cy="0.5"></circle><line opacity="1" x1="14.5" y1="3.5" x2="16.5" y2="5.5" stroke-width="0.2460826045953361" stroke="#000000" stroke-linecap="round"></line><circle opacity="1" r="0.16709522890946502" fill="#000000" cx="14.5" cy="3.5"></circle><line opacity="1" x1="14.5" y1="5.5" x2="16.5" y2="3.5" stroke-width="0.1781275720164609" stroke="#000000" stroke-linecap="round"></line><circle opacity="1" r="0.2489178883744856" fill="#000000" cx="14.5" cy="5.5"></circle><line opacity="1" x1="14.5" y1="6.5" x2="16.5" y2="4.5" stroke-width="0.2288196587791495" stroke="#000000" stroke-linecap="round"></line><circle opacity="1" r="0.3093362268518519" fill="#000000" cx="14.5" cy="6.5"></circle><line opacity="1" x1="14.5" y1="9.5" x2="16.5" y2="7.5" stroke-width="0.18643046982167352" stroke="#000000" stroke-linecap="round"></line><circle opacity="1" r="0.3307576517489712" fill="#000000" cx="14.5" cy="9.5"></circle><line opacity="1" x1="14.5" y1="10.5" x2="15.5" y2="11.5" stroke-width="0.20219457304526745" stroke="#000000" stroke-linecap="round"></line><circle opacity="1" r="0.2850340149176955" fill="#000000" cx="14.5" cy="10.5"></circle><circle opacity="1" r="0.31659927983539093" fill="#000000" cx="14.5" cy="11.5"></circle><line opacity="1" x1="14.5" y1="12.5" x2="17.5" y2="9.5" stroke-width="0.19174543467078187" stroke="#000000" stroke-linecap="round"></line><circle opacity="1" r="0.18335249485596708" fill="#000000" cx="14.5" cy="12.5"></circle><circle opacity="1" r="0.20678118569958848" fill="#000000" cx="14.5" cy="15.5"></circle><line opacity="1" x1="14.5" y1="18.5" x2="16.5" y2="20.5" stroke-width="0.20519675925925923" stroke="#000000" stroke-linecap="round"></line><circle opacity="1" r="0.4451779192386832" fill="#000000" cx="14.5" cy="18.5"></circle><circle opacity="1" r="0.4050533693415638" fill="#000000" cx="14.5" cy="19.5"></circle><line opacity="1" x1="14.5" y1="20.5" x2="16.5" y2="18.5" stroke-width="0.14046521347736624" stroke="#000000" stroke-linecap="round"></line><circle opacity="1" r="0.3342602880658436" fill="#000000" cx="14.5" cy="20.5"></circle><line opacity="1" x1="14.5" y1="21.5" x2="15.5" y2="22.5" stroke-width="0.08124217678326474" stroke="#000000" stroke-linecap="round"></line><circle opacity="1" r="0.44261844135802475" fill="#000000" cx="14.5" cy="21.5"></circle><line opacity="1" x1="14.5" y1="23.5" x2="15.5" y2="22.5" stroke-width="0.12986379029492454" stroke="#000000" stroke-linecap="round"></line><line opacity="1" x1="14.5" y1="23.5" x2="15.5" y2="24.5" stroke-width="0.10009473593964334" stroke="#000000" stroke-linecap="round"></line><circle opacity="1" r="0.4387957175925926" fill="#000000" cx="14.5" cy="23.5"></circle><circle opacity="1" r="0.32419585905349796" fill="#000000" cx="14.5" cy="24.5"></circle><circle opacity="1" r="0.3309115869341564" fill="#000000" cx="15.5" cy="0.5"></circle><circle opacity="1" r="0.37889660493827165" fill="#000000" cx="15.5" cy="4.5"></circle><line opacity="1" x1="15.5" y1="5.5" x2="16.5" y2="6.5" stroke-width="0.20551258144718793" stroke="#000000" stroke-linecap="round"></line><circle opacity="1" r="0.3840448816872428" fill="#000000" cx="15.5" cy="5.5"></circle><line opacity="1" x1="15.5" y1="7.5" x2="16.5" y2="6.5" stroke-width="0.20804365997942387" stroke="#000000" stroke-linecap="round"></line><circle opacity="1" r="0.24815920781893006" fill="#000000" cx="15.5" cy="7.5"></circle><line opacity="1" x1="15.5" y1="8.5" x2="16.5" y2="9.5" stroke-width="0.09588852451989026" stroke="#000000" stroke-linecap="round"></line><circle opacity="1" r="0.28086921296296297" fill="#000000" cx="15.5" cy="8.5"></circle><circle opacity="1" r="0.3397762988683128" fill="#000000" cx="15.5" cy="11.5"></circle><line opacity="1" x1="15.5" y1="15.5" x2="16.5" y2="16.5" stroke-width="0.08395404663923182" stroke="#000000" stroke-linecap="round"></line><circle opacity="1" r="0.1952409336419753" fill="#000000" cx="15.5" cy="15.5"></circle><circle opacity="1" r="0.20115033436213992" fill="#000000" cx="15.5" cy="19.5"></circle><line opacity="1" x1="15.5" y1="21.5" x2="16.5" y2="20.5" stroke-width="0.2466144761659808" stroke="#000000" stroke-linecap="round"></line><circle opacity="1" r="0.24353626543209878" fill="#000000" cx="15.5" cy="21.5"></circle><circle opacity="1" r="0.23603131430041152" fill="#000000" cx="15.5" cy="22.5"></circle><circle opacity="1" r="0.25748083847736625" fill="#000000" cx="15.5" cy="24.5"></circle><circle opacity="1" r="0.25950520833333335" fill="#000000" cx="16.5" cy="0.5"></circle><circle opacity="1" r="0.2781692386831276" fill="#000000" cx="16.5" cy="3.5"></circle><circle opacity="1" r="0.3073155221193416" fill="#000000" cx="16.5" cy="4.5"></circle><circle opacity="1" r="0.36189776234567905" fill="#000000" cx="16.5" cy="5.5"></circle><circle opacity="1" r="0.4463141075102881" fill="#000000" cx="16.5" cy="6.5"></circle><line opacity="1" x1="16.5" y1="7.5" x2="17.5" y2="8.5" stroke-width="0.23633187585733878" stroke="#000000" stroke-linecap="round"></line><circle opacity="1" r="0.3844639274691358" fill="#000000" cx="16.5" cy="7.5"></circle><line opacity="1" x1="16.5" y1="9.5" x2="17.5" y2="8.5" stroke-width="0.1512729338134431" stroke="#000000" stroke-linecap="round"></line><circle opacity="1" r="0.16750572273662553" fill="#000000" cx="16.5" cy="9.5"></circle><circle opacity="1" r="0.4459537037037038" fill="#000000" cx="16.5" cy="10.5"></circle><line opacity="1" x1="16.5" y1="11.5" x2="17.5" y2="12.5" stroke-width="0.10301515346364883" stroke="#000000" stroke-linecap="round"></line><circle opacity="1" r="0.21536123971193416" fill="#000000" cx="16.5" cy="11.5"></circle><circle opacity="1" r="0.38011709104938274" fill="#000000" cx="16.5" cy="16.5"></circle><line opacity="1" x1="16.5" y1="17.5" x2="17.5" y2="16.5" stroke-width="0.17588005829903977" stroke="#000000" stroke-linecap="round"></line><circle opacity="1" r="0.4050570344650206" fill="#000000" cx="16.5" cy="17.5"></circle><circle opacity="1" r="0.3057040895061729" fill="#000000" cx="16.5" cy="18.5"></circle><line opacity="1" x1="16.5" y1="19.5" x2="17.5" y2="20.5" stroke-width="0.09278431498628258" stroke="#000000" stroke-linecap="round"></line><circle opacity="1" r="0.28534310699588483" fill="#000000" cx="16.5" cy="19.5"></circle><circle opacity="1" r="0.3414646990740741" fill="#000000" cx="16.5" cy="20.5"></circle><circle opacity="1" r="0.2083926183127572" fill="#000000" cx="16.5" cy="22.5"></circle><circle opacity="1" r="0.25996945730452675" fill="#000000" cx="17.5" cy="8.5"></circle><circle opacity="1" r="0.32114891975308646" fill="#000000" cx="17.5" cy="9.5"></circle><line opacity="1" x1="17.5" y1="12.5" x2="18.5" y2="11.5" stroke-width="0.10037755058299039" stroke="#000000" stroke-linecap="round"></line><circle opacity="1" r="0.44768608539094656" fill="#000000" cx="17.5" cy="12.5"></circle><circle opacity="1" r="0.3635067515432099" fill="#000000" cx="17.5" cy="13.5"></circle><circle opacity="1" r="0.306522633744856" fill="#000000" cx="17.5" cy="14.5"></circle><circle opacity="1" r="0.39724299125514406" fill="#000000" cx="17.5" cy="16.5"></circle><circle opacity="1" r="0.30228819444444444" fill="#000000" cx="17.5" cy="20.5"></circle><rect width="1" height="1" fill="#000000" x="18" y="0"></rect><rect width="1" height="1" fill="#000000" x="18" y="1"></rect><rect width="1" height="1" fill="#000000" x="18" y="2"></rect><rect width="1" height="1" fill="#000000" x="18" y="3"></rect><rect width="1" height="1" fill="#000000" x="18" y="4"></rect><rect width="1" height="1" fill="#000000" x="18" y="5"></rect><rect width="1" height="1" fill="#000000" x="18" y="6"></rect><line opacity="1" x1="18.5" y1="11.5" x2="19.5" y2="12.5" stroke-width="0.18412819358710564" stroke="#000000" stroke-linecap="round"></line><circle opacity="1" r="0.22739017489711935" fill="#000000" cx="18.5" cy="11.5"></circle><circle opacity="1" r="0.25624324845679014" fill="#000000" cx="18.5" cy="16.5"></circle><circle opacity="1" r="0.4336804269547325" fill="#000000" cx="18.5" cy="18.5"></circle><circle opacity="1" r="0.34187763631687246" fill="#000000" cx="18.5" cy="20.5"></circle><line opacity="1" x1="18.5" y1="24.5" x2="20.5" y2="22.5" stroke-width="0.18498713991769547" stroke="#000000" stroke-linecap="round"></line><circle opacity="1" r="0.41314474022633746" fill="#000000" cx="18.5" cy="24.5"></circle><rect width="1" height="1" fill="#000000" x="19" y="0"></rect><rect width="1" height="1" fill="#000000" x="19" y="6"></rect><circle opacity="1" r="0.2894553755144033" fill="#000000" cx="19.5" cy="9.5"></circle><circle opacity="1" r="0.39967418981481484" fill="#000000" cx="19.5" cy="12.5"></circle><line opacity="1" x1="19.5" y1="13.5" x2="20.5" y2="12.5" stroke-width="0.219215963648834" stroke="#000000" stroke-linecap="round"></line><line opacity="1" x1="19.5" y1="13.5" x2="20.5" y2="14.5" stroke-width="0.0896591006515775" stroke="#000000" stroke-linecap="round"></line><circle opacity="1" r="0.2566500771604939" fill="#000000" cx="19.5" cy="13.5"></circle><line opacity="1" x1="19.5" y1="16.5" x2="21.5" y2="14.5" stroke-width="0.11343503515089162" stroke="#000000" stroke-linecap="round"></line><line opacity="1" x1="19.5" y1="16.5" x2="21.5" y2="18.5" stroke-width="0.24624314128943758" stroke="#000000" stroke-linecap="round"></line><circle opacity="1" r="0.31879957561728395" fill="#000000" cx="19.5" cy="16.5"></circle><line opacity="1" x1="19.5" y1="20.5" x2="23.5" y2="16.5" stroke-width="0.15794345850480107" stroke="#000000" stroke-linecap="round"></line><circle opacity="1" r="0.3182302597736626" fill="#000000" cx="19.5" cy="20.5"></circle><line opacity="1" x1="19.5" y1="23.5" x2="20.5" y2="24.5" stroke-width="0.23150077160493826" stroke="#000000" stroke-linecap="round"></line><circle opacity="1" r="0.16607143775720165" fill="#000000" cx="19.5" cy="23.5"></circle><circle opacity="1" r="0.21566911008230455" fill="#000000" cx="19.5" cy="24.5"></circle><rect width="1" height="1" fill="#000000" x="20" y="0"></rect><rect width="1" height="1" fill="#000000" x="20" y="2"></rect><rect width="1" height="1" fill="#000000" x="20" y="3"></rect><rect width="1" height="1" fill="#000000" x="20" y="4"></rect><rect width="1" height="1" fill="#000000" x="20" y="6"></rect><circle opacity="1" r="0.3936194058641975" fill="#000000" cx="20.5" cy="12.5"></circle><circle opacity="1" r="0.22932047325102883" fill="#000000" cx="20.5" cy="14.5"></circle><circle opacity="1" r="0.2549482381687243" fill="#000000" cx="20.5" cy="15.5"></circle><line opacity="1" x1="20.5" y1="16.5" x2="21.5" y2="17.5" stroke-width="0.19399369855967077" stroke="#000000" stroke-linecap="round"></line><circle opacity="1" r="0.3235764531893004" fill="#000000" cx="20.5" cy="16.5"></circle><circle opacity="1" r="0.26981764403292186" fill="#000000" cx="20.5" cy="17.5"></circle><line opacity="1" x1="20.5" y1="18.5" x2="21.5" y2="17.5" stroke-width="0.24025752314814813" stroke="#000000" stroke-linecap="round"></line><circle opacity="1" r="0.2825893775720165" fill="#000000" cx="20.5" cy="18.5"></circle><circle opacity="1" r="0.37902732767489716" fill="#000000" cx="20.5" cy="19.5"></circle><circle opacity="1" r="0.16840123456790124" fill="#000000" cx="20.5" cy="20.5"></circle><line opacity="1" x1="20.5" y1="22.5" x2="22.5" y2="24.5" stroke-width="0.11190918638545952" stroke="#000000" stroke-linecap="round"></line><circle opacity="1" r="0.4163272890946502" fill="#000000" cx="20.5" cy="22.5"></circle><line opacity="1" x1="20.5" y1="24.5" x2="22.5" y2="22.5" stroke-width="0.12740322788065844" stroke="#000000" stroke-linecap="round"></line><circle opacity="1" r="0.26988605967078194" fill="#000000" cx="20.5" cy="24.5"></circle><rect width="1" height="1" fill="#000000" x="21" y="0"></rect><rect width="1" height="1" fill="#000000" x="21" y="2"></rect><rect width="1" height="1" fill="#000000" x="21" y="3"></rect><rect width="1" height="1" fill="#000000" x="21" y="4"></rect><rect width="1" height="1" fill="#000000" x="21" y="6"></rect><circle opacity="1" r="0.21546752829218108" fill="#000000" cx="21.5" cy="14.5"></circle><circle opacity="1" r="0.22870717592592593" fill="#000000" cx="21.5" cy="17.5"></circle><circle opacity="1" r="0.2506698173868313" fill="#000000" cx="21.5" cy="18.5"></circle><circle opacity="1" r="0.18019804526748973" fill="#000000" cx="21.5" cy="23.5"></circle><circle opacity="1" r="0.22224556327160494" fill="#000000" cx="21.5" cy="24.5"></circle><rect width="1" height="1" fill="#000000" x="22" y="0"></rect><rect width="1" height="1" fill="#000000" x="22" y="2"></rect><rect width="1" height="1" fill="#000000" x="22" y="3"></rect><rect width="1" height="1" fill="#000000" x="22" y="4"></rect><rect width="1" height="1" fill="#000000" x="22" y="6"></rect><line opacity="1" x1="22.5" y1="10.5" x2="23.5" y2="11.5" stroke-width="0.14942751200274346" stroke="#000000" stroke-linecap="round"></line><circle opacity="1" r="0.4292688400205762" fill="#000000" cx="22.5" cy="10.5"></circle><circle opacity="1" r="0.3497075617283951" fill="#000000" cx="22.5" cy="11.5"></circle><line opacity="1" x1="22.5" y1="12.5" x2="24.5" y2="10.5" stroke-width="0.10279010202331962" stroke="#000000" stroke-linecap="round"></line><circle opacity="1" r="0.22642991255144035" fill="#000000" cx="22.5" cy="12.5"></circle><line opacity="1" x1="22.5" y1="17.5" x2="23.5" y2="18.5" stroke-width="0.2468335262345679" stroke="#000000" stroke-linecap="round"></line><circle opacity="1" r="0.42656275720164616" fill="#000000" cx="22.5" cy="17.5"></circle><line opacity="1" x1="22.5" y1="21.5" x2="23.5" y2="20.5" stroke-width="0.13359814386145402" stroke="#000000" stroke-linecap="round"></line><circle opacity="1" r="0.34140239197530864" fill="#000000" cx="22.5" cy="21.5"></circle><circle opacity="1" r="0.19887429269547327" fill="#000000" cx="22.5" cy="22.5"></circle><circle opacity="1" r="0.3650228909465021" fill="#000000" cx="22.5" cy="24.5"></circle><rect width="1" height="1" fill="#000000" x="23" y="0"></rect><rect width="1" height="1" fill="#000000" x="23" y="6"></rect><circle opacity="1" r="0.44313522376543213" fill="#000000" cx="23.5" cy="11.5"></circle><line opacity="1" x1="23.5" y1="14.5" x2="24.5" y2="13.5" stroke-width="0.10628064986282579" stroke="#000000" stroke-linecap="round"></line><circle opacity="1" r="0.37395479681069965" fill="#000000" cx="23.5" cy="14.5"></circle><line opacity="1" x1="23.5" y1="16.5" x2="24.5" y2="17.5" stroke-width="0.15715277777777775" stroke="#000000" stroke-linecap="round"></line><circle opacity="1" r="0.31151819701646094" fill="#000000" cx="23.5" cy="16.5"></circle><line opacity="1" x1="23.5" y1="17.5" x2="24.5" y2="16.5" stroke-width="0.22296832133058986" stroke="#000000" stroke-linecap="round"></line><line opacity="1" x1="23.5" y1="17.5" x2="24.5" y2="18.5" stroke-width="0.16533789866255144" stroke="#000000" stroke-linecap="round"></line><circle opacity="1" r="0.3193505658436214" fill="#000000" cx="23.5" cy="17.5"></circle><line opacity="1" x1="23.5" y1="18.5" x2="24.5" y2="17.5" stroke-width="0.15472597307956104" stroke="#000000" stroke-linecap="round"></line><circle opacity="1" r="0.31687538580246916" fill="#000000" cx="23.5" cy="18.5"></circle><line opacity="1" x1="23.5" y1="19.5" x2="24.5" y2="18.5" stroke-width="0.19362536436899863" stroke="#000000" stroke-linecap="round"></line><circle opacity="1" r="0.44429218106995894" fill="#000000" cx="23.5" cy="19.5"></circle><line opacity="1" x1="23.5" y1="20.5" x2="24.5" y2="21.5" stroke-width="0.2388261959876543" stroke="#000000" stroke-linecap="round"></line><circle opacity="1" r="0.2617861368312757" fill="#000000" cx="23.5" cy="20.5"></circle><circle opacity="1" r="0.40308519804526755" fill="#000000" cx="23.5" cy="24.5"></circle><rect width="1" height="1" fill="#000000" x="24" y="0"></rect><rect width="1" height="1" fill="#000000" x="24" y="1"></rect><rect width="1" height="1" fill="#000000" x="24" y="2"></rect><rect width="1" height="1" fill="#000000" x="24" y="3"></rect><rect width="1" height="1" fill="#000000" x="24" y="4"></rect><rect width="1" height="1" fill="#000000" x="24" y="5"></rect><rect width="1" height="1" fill="#000000" x="24" y="6"></rect><circle opacity="1" r="0.20565354938271607" fill="#000000" cx="24.5" cy="8.5"></circle><circle opacity="1" r="0.4338893389917696" fill="#000000" cx="24.5" cy="10.5"></circle><circle opacity="1" r="0.2899684927983539" fill="#000000" cx="24.5" cy="13.5"></circle><circle opacity="1" r="0.3271780478395062" fill="#000000" cx="24.5" cy="14.5"></circle><circle opacity="1" r="0.42324948559670783" fill="#000000" cx="24.5" cy="16.5"></circle><circle opacity="1" r="0.22369206532921812" fill="#000000" cx="24.5" cy="17.5"></circle><circle opacity="1" r="0.3451261574074075" fill="#000000" cx="24.5" cy="18.5"></circle><circle opacity="1" r="0.3486165766460906" fill="#000000" cx="24.5" cy="21.5"></circle><circle opacity="1" r="0.3230059156378601" fill="#000000" cx="24.5" cy="24.5"></circle></svg>