<?xml version="1.0" encoding="utf-8"?>
 <!DOCTYPE svg PUBLIC "-//W3C//DTD SVG 20010904//EN" "http://www.w3.org/TR/2001/REC-SVG-20010904/DTD/svg10.dtd">
<svg class="Qr-item-svg" width="100%" height="100%" viewBox="-5 -5 35 35" fill="white" xmlns="http://www.w3.org/2000/svg" xmlns:xlink="http://www.w3.org/1999/xlink"><circle cx="9" cy="0.5" r="0.500906207133059" fill="#FFFFFF" stroke="#8ED1FC" stroke-width="0.3713588820301783"></circle><circle r="0.49319615912208503" fill="#FFFFFF" stroke="#8ED1FC" stroke-width="0.36243364197530864" cx="13.5" cy="1"></circle><circle cx="15" cy="0.5" r="0.479696073388203" fill="#FFFFFF" stroke="#8ED1FC" stroke-width="0.3909957133058985"></circle><circle cx="16.5" cy="0.5" r="0.37238940329218106" fill="#8ED1FC"></circle><circle r="0.5216773834019205" fill="#FFFFFF" cx="12.5" cy="2" stroke="#8ED1FC" stroke-width="0.3655272633744856"></circle><circle cx="10.5" cy="3" r="0.48782771776406036" fill="#FFFFFF" stroke="#8ED1FC" stroke-width="0.3769351851851852"></circle><circle cx="3.5" cy="3.5" r="1.5" fill="#0693E3"></circle><circle fill="none" cx="3.5" cy="3.5" r="3" stroke-width="1" stroke="#0693E3"></circle><circle fill="#FFFFFF" stroke-width="0.39537620027434844" stroke="#8ED1FC" cx="10" cy="3.5" r="0.513090920781893"></circle><circle cx="11.5" cy="3.5" r="0.2655724879972565" fill="#8ED1FC"></circle><circle r="0.49061749828532236" fill="#FFFFFF" cx="14" cy="3.5" stroke="#8ED1FC" stroke-width="0.3751340877914952"></circle><circle r="0.4882542438271605" fill="#FFFFFF" stroke="#8ED1FC" stroke-width="0.3906303155006859" cx="16.5" cy="4"></circle><circle cx="21.5" cy="3.5" r="1.5" fill="#0693E3"></circle><circle cx="21.5" cy="3.5" r="3" fill="none" stroke="#0693E3" stroke-width="1"></circle><circle cx="10.5" cy="6" r="0.512863725994513" fill="#FFFFFF" stroke="#8ED1FC" stroke-width="0.3848652263374486"></circle><circle cx="14" cy="5.5" r="0.492713048696845" fill="#FFFFFF" stroke="#8ED1FC" stroke-width="0.36770558984910834"></circle><circle cx="8.5" cy="6.5" r="0.4884002057613169" fill="#8ED1FC"></circle><circle r="0.4131440757887517" fill="#8ED1FC" cx="14.5" cy="6.5"></circle><circle r="0.5161758401920439" fill="#FFFFFF" cx="16.5" cy="7" stroke="#8ED1FC" stroke-width="0.3896445473251029"></circle><circle cx="10" cy="7.5" r="0.4904843964334705" fill="#FFFFFF" stroke="#8ED1FC" stroke-width="0.38474982853223594"></circle><circle cx="12.5" cy="7.5" r="0.29130015432098766" fill="#8ED1FC"></circle><circle cx="15.5" cy="8" r="0.5044881687242798" fill="#FFFFFF" stroke="#8ED1FC" stroke-width="0.3840186899862826"></circle><circle cx="7" cy="8.5" r="0.5030311213991769" fill="#FFFFFF" stroke="#8ED1FC" stroke-width="0.3824209533607682"></circle><circle r="0.41087534293552813" fill="#8ED1FC" cx="8.5" cy="8.5"></circle><circle r="0.4889414008916324" fill="#8ED1FC" cx="13.5" cy="8.5"></circle><circle r="0.3686406893004115" fill="#8ED1FC" cx="24.5" cy="8.5"></circle><circle r="0.3192633316186557" fill="#8ED1FC" cx="7.5" cy="9.5"></circle><circle cx="9.5" cy="9.5" r="0.34628450788751713" fill="#8ED1FC"></circle><circle r="0.503684413580247" fill="#FFFFFF" cx="14.5" cy="10" stroke="#8ED1FC" stroke-width="0.363437414266118"></circle><circle r="0.2974762088477366" fill="#8ED1FC" cx="17.5" cy="9.5"></circle><circle cx="19.5" cy="9.5" r="0.33555705589849105" fill="#8ED1FC"></circle><circle cx="6.5" cy="10.5" r="0.37296596364883405" fill="#8ED1FC"></circle><circle r="0.5101939729080933" fill="#FFFFFF" stroke="#8ED1FC" stroke-width="0.39976646090534984" cx="16.5" cy="11"></circle><circle cx="22.5" cy="11" r="0.5074421296296296" fill="#FFFFFF" stroke="#8ED1FC" stroke-width="0.36385099451303154"></circle><circle cx="24.5" cy="10.5" r="0.35098701131687243" fill="#8ED1FC"></circle><circle r="0.47733882030178326" fill="#FFFFFF" cx="8" cy="11.5" stroke="#8ED1FC" stroke-width="0.3711469478737997"></circle><circle r="0.49294903120713307" fill="#FFFFFF" cx="11" cy="11.5" stroke="#8ED1FC" stroke-width="0.36360425240054867"></circle><circle cx="14.5" cy="12" r="0.5032945387517147" fill="#FFFFFF" stroke="#8ED1FC" stroke-width="0.3824567901234568"></circle><circle r="0.5238222307956104" fill="#FFFFFF" cx="16" cy="11.5" stroke="#8ED1FC" stroke-width="0.36490775034293554"></circle><circle cx="18.5" cy="11.5" r="0.2787594307270233" fill="#8ED1FC"></circle><circle cx="23.5" cy="11.5" r="0.2865054869684499" fill="#8ED1FC"></circle><circle r="0.5212019890260631" fill="#FFFFFF" cx="6" cy="12.5" stroke="#8ED1FC" stroke-width="0.38821279149519894"></circle><circle r="0.44332025891632376" fill="#8ED1FC" cx="8.5" cy="12.5"></circle><circle cx="17.5" cy="13" r="0.4996892146776406" fill="#FFFFFF" stroke="#8ED1FC" stroke-width="0.39596141975308646"></circle><circle r="0.5014876971879286" fill="#FFFFFF" cx="19.5" cy="13" stroke="#8ED1FC" stroke-width="0.37811008230452675"></circle><circle cx="20.5" cy="12.5" r="0.3145522548010974" fill="#8ED1FC"></circle><circle r="0.4315940072016461" fill="#8ED1FC" cx="22.5" cy="12.5"></circle><circle r="0.4993392061042524" fill="#FFFFFF" stroke="#8ED1FC" stroke-width="0.39161762688614543" cx="1.5" cy="14"></circle><circle r="0.2750032150205761" fill="#8ED1FC" cx="2.5" cy="13.5"></circle><circle cx="10" cy="13.5" r="0.49266396604938273" fill="#FFFFFF" stroke="#8ED1FC" stroke-width="0.36249142661179695"></circle><circle cx="24.5" cy="14" r="0.524965706447188" fill="#FFFFFF" stroke="#8ED1FC" stroke-width="0.3932813786008231"></circle><circle cx="0.5" cy="15" r="0.4881067815500686" fill="#FFFFFF" stroke="#8ED1FC" stroke-width="0.37339300411522636"></circle><circle r="0.49598015260631" fill="#FFFFFF" stroke="#8ED1FC" stroke-width="0.3975723593964335" cx="7" cy="14.5"></circle><circle r="0.41594757373113855" fill="#8ED1FC" cx="17.5" cy="14.5"></circle><circle cx="20.5" cy="15" r="0.4956747256515775" fill="#FFFFFF" stroke="#8ED1FC" stroke-width="0.3649514746227709"></circle><circle r="0.3882394547325103" fill="#8ED1FC" cx="21.5" cy="14.5"></circle><circle cx="24" cy="14.5" r="0.47685356652949246" fill="#FFFFFF" stroke="#8ED1FC" stroke-width="0.36047067901234564"></circle><circle cx="7.5" cy="16" r="0.48906871570644717" fill="#FFFFFF" stroke="#8ED1FC" stroke-width="0.37095267489711936"></circle><circle cx="10.5" cy="16" r="0.5083470507544582" fill="#FFFFFF" stroke="#8ED1FC" stroke-width="0.3771881001371742"></circle><circle r="0.48136466906721537" fill="#FFFFFF" stroke="#8ED1FC" stroke-width="0.3666824417009602" cx="15" cy="15.5"></circle><circle r="0.4778332904663923" fill="#FFFFFF" stroke="#8ED1FC" stroke-width="0.37040054869684497" cx="1" cy="16.5"></circle><circle cx="5" cy="16.5" r="0.5049453446502058" fill="#FFFFFF" stroke="#8ED1FC" stroke-width="0.3857733196159122"></circle><circle cx="7" cy="16.5" r="0.4826232424554184" fill="#FFFFFF" stroke="#8ED1FC" stroke-width="0.3714753086419753"></circle><circle cx="16.5" cy="17" r="0.5119611625514403" fill="#FFFFFF" stroke="#8ED1FC" stroke-width="0.38907115912208506"></circle><circle r="0.5241298010973937" fill="#FFFFFF" stroke="#8ED1FC" stroke-width="0.37347685185185187" cx="18" cy="16.5"></circle><circle cx="20" cy="16.5" r="0.5208149005486968" fill="#FFFFFF" stroke="#8ED1FC" stroke-width="0.38796484910836765"></circle><circle r="0.5058063271604938" fill="#FFFFFF" cx="8.5" cy="18" stroke="#8ED1FC" stroke-width="0.39217198216735255"></circle><circle cx="12.5" cy="18.5" r="0.3372792352537723" fill="#8ED1FC"></circle><circle r="0.4871071244855967" fill="#FFFFFF" cx="16.5" cy="19" stroke="#8ED1FC" stroke-width="0.3751447187928669"></circle><circle r="0.4342646176268862" fill="#8ED1FC" cx="18.5" cy="18.5"></circle><circle cx="10.5" cy="19.5" r="0.4620573988340192" fill="#8ED1FC"></circle><circle r="0.5171652091906722" fill="#FFFFFF" cx="14.5" cy="20" stroke="#8ED1FC" stroke-width="0.39134139231824416"></circle><circle r="0.5184284979423869" fill="#FFFFFF" cx="20.5" cy="20" stroke="#8ED1FC" stroke-width="0.39122033607681755"></circle><circle r="0.4788254458161865" fill="#FFFFFF" stroke="#8ED1FC" stroke-width="0.3928300754458162" cx="23.5" cy="20"></circle><circle cx="17" cy="20.5" r="0.48879415294924555" fill="#FFFFFF" stroke="#8ED1FC" stroke-width="0.3679861111111111"></circle><circle cx="19" cy="20.5" r="0.4840903635116598" fill="#FFFFFF" stroke="#8ED1FC" stroke-width="0.3680296639231824"></circle><circle r="1.5" fill="#0693E3" cx="3.5" cy="21.5"></circle><circle r="3" fill="none" stroke="#0693E3" stroke-width="1" cx="3.5" cy="21.5"></circle><circle cx="11.5" cy="21.5" r="0.43014188957475996" fill="#8ED1FC"></circle><circle cx="15" cy="21.5" r="0.4847404406721536" fill="#FFFFFF" stroke="#8ED1FC" stroke-width="0.36512379972565157"></circle><circle fill="#FFFFFF" cx="22.5" cy="22" r="0.5017307527434842" stroke="#8ED1FC" stroke-width="0.38663786008230455"></circle><circle fill="#8ED1FC" cx="24.5" cy="21.5" r="0.4858174725651577"></circle><circle r="0.5094103652263374" fill="#FFFFFF" cx="16" cy="22.5" stroke="#8ED1FC" stroke-width="0.36909842249657066"></circle><circle r="0.5219817386831276" fill="#FFFFFF" stroke="#8ED1FC" stroke-width="0.3901740397805213" cx="10.5" cy="24"></circle><circle r="0.47561728395061725" fill="#FFFFFF" cx="14" cy="23.5" stroke="#8ED1FC" stroke-width="0.3615392661179698"></circle><circle cx="12" cy="24.5" r="0.5226180984224966" fill="#FFFFFF" stroke="#8ED1FC" stroke-width="0.3651995884773662"></circle><circle r="0.5166619513031551" fill="#FFFFFF" stroke="#8ED1FC" stroke-width="0.3667001028806584" cx="15" cy="24.5"></circle><circle r="0.500235768175583" fill="#FFFFFF" stroke="#8ED1FC" stroke-width="0.3827566872427984" cx="19" cy="24.5"></circle><circle cx="22" cy="24.5" r="0.5105011145404664" fill="#FFFFFF" stroke="#8ED1FC" stroke-width="0.36514591906721533"></circle><circle cx="24" cy="24.5" r="0.5133076131687243" fill="#FFFFFF" stroke="#8ED1FC" stroke-width="0.3677409122085048"></circle><circle cx="11" cy="1" r="0.7071067811865476" fill="#FFFFFF" stroke="#8ED1FC" stroke-width="0.4475486111111111"></circle><circle r="0.7071067811865476" fill="#FFFFFF" stroke="#8ED1FC" stroke-width="0.36225231481481485" cx="16" cy="5"></circle><circle r="1" fill="#FFFFFF" stroke="#8ED1FC" stroke-width="0.3751851851851852" cx="11.5" cy="6.5"></circle><circle cx="16.5" cy="8.5" r="1" fill="#FFFFFF" stroke="#8ED1FC" stroke-width="0.4296099537037037"></circle><circle cx="1.5" cy="9.5" r="1" fill="#FFFFFF" stroke="#8ED1FC" stroke-width="0.3724467592592593"></circle><circle r="0.3558931327160494" fill="#8ED1FC" cx="1.5" cy="9.5"></circle><circle cx="2" cy="9" r="0.7071067811865476" fill="#FFFFFF" stroke="#8ED1FC" stroke-width="0.5620462962962962"></circle><circle cx="3" cy="9" r="0.7071067811865476" fill="#FFFFFF" stroke="#8ED1FC" stroke-width="0.5396585648148148"></circle><circle cx="11.5" cy="10.5" r="1" fill="#FFFFFF" stroke="#8ED1FC" stroke-width="0.43264120370370374"></circle><circle r="1" fill="#FFFFFF" cx="4.5" cy="11.5" stroke="#8ED1FC" stroke-width="0.3641331018518519"></circle><circle r="0.7071067811865476" fill="#FFFFFF" stroke="#8ED1FC" stroke-width="0.5499560185185185" cx="12" cy="13"></circle><circle cx="1.5" cy="15.5" r="1" fill="#FFFFFF" stroke="#8ED1FC" stroke-width="0.5902476851851852"></circle><circle cx="10.5" cy="15.5" r="1" fill="#FFFFFF" stroke="#8ED1FC" stroke-width="0.573212962962963"></circle><circle r="0.36187521433470504" fill="#8ED1FC" cx="10.5" cy="15.5"></circle><circle cx="3" cy="16" r="0.7071067811865476" fill="#FFFFFF" stroke="#8ED1FC" stroke-width="0.5071087962962963"></circle><circle cx="13" cy="16" r="0.7071067811865476" fill="#FFFFFF" stroke="#8ED1FC" stroke-width="0.5660625"></circle><circle cx="23.5" cy="17.5" r="1" fill="#FFFFFF" stroke="#8ED1FC" stroke-width="0.34294560185185186"></circle><circle cx="23.5" cy="17.5" r="0.2908329046639232" fill="#8ED1FC"></circle><circle r="0.7071067811865476" fill="#FFFFFF" stroke="#8ED1FC" stroke-width="0.4753657407407407" cx="24" cy="17"></circle><circle cx="9.5" cy="18.5" r="1" fill="#FFFFFF" stroke="#8ED1FC" stroke-width="0.5438113425925926"></circle><circle cx="21" cy="18" r="0.7071067811865476" fill="#FFFFFF" stroke="#8ED1FC" stroke-width="0.4437962962962963"></circle><circle cx="24" cy="18" r="0.7071067811865476" fill="#FFFFFF" stroke="#8ED1FC" stroke-width="0.4064085648148148"></circle><circle r="1" fill="#FFFFFF" cx="14.5" cy="19.5" stroke="#8ED1FC" stroke-width="0.4239571759259259"></circle><circle cx="14.5" cy="19.5" r="0.46550925925925923" fill="#8ED1FC"></circle><circle cx="9.5" cy="21.5" r="1" fill="#FFFFFF" stroke="#8ED1FC" stroke-width="0.3699525462962963"></circle><circle cx="9.5" cy="21.5" r="0.37563871742112487" fill="#8ED1FC"></circle><circle r="0.7071067811865476" fill="#FFFFFF" stroke="#8ED1FC" stroke-width="0.36728819444444444" cx="9" cy="22"></circle><circle cx="9" cy="23" r="0.7071067811865476" fill="#FFFFFF" stroke="#8ED1FC" stroke-width="0.4824340277777778"></circle><circle cx="20.5" cy="23.5" r="1" fill="#FFFFFF" stroke="#8ED1FC" stroke-width="0.5744594907407408"></circle><circle fill="#FFFFFF" cx="12.5" cy="4.5" r="0.6457957175925926" stroke="#8ED1FC" stroke-width="0.22481327160493828"></circle><circle fill="#FFFFFF" stroke-width="0.2301766975308642" stroke="#8ED1FC" cx="13.5" cy="4.5" r="0.6130902777777778"></circle><circle cx="12.5" cy="5.5" r="0.49462577160493826" fill="#FFFFFF" stroke="#8ED1FC" stroke-width="0.21947916666666667"></circle><circle r="0.5695688657407407" fill="#FFFFFF" cx="14.5" cy="7.5" stroke="#8ED1FC" stroke-width="0.216054012345679"></circle><circle r="0.5337307098765433" fill="#FFFFFF" cx="16.5" cy="8.5" stroke="#8ED1FC" stroke-width="0.3115038580246914"></circle><circle r="0.5100086805555556" fill="#FFFFFF" cx="5.5" cy="9.5" stroke="#8ED1FC" stroke-width="0.20062808641975308"></circle><circle cx="17.5" cy="10.5" r="0.47011188271604937" fill="#FFFFFF" stroke="#8ED1FC" stroke-width="0.15653472222222223"></circle><circle r="0.43133005401234564" fill="#FFFFFF" cx="18.5" cy="10.5" stroke="#8ED1FC" stroke-width="0.3087037037037037"></circle><circle cx="21.5" cy="10.5" r="0.4368325617283951" fill="#FFFFFF" stroke="#8ED1FC" stroke-width="0.2117631172839506"></circle><circle cx="1.5" cy="11.5" r="0.5665162037037037" fill="#FFFFFF" stroke="#8ED1FC" stroke-width="0.18180632716049383"></circle><circle cx="3.5" cy="12.5" r="0.5360204475308642" fill="#FFFFFF" stroke="#8ED1FC" stroke-width="0.2489837962962963"></circle><circle cx="8.5" cy="15.5" r="0.48650655864197534" fill="#FFFFFF" stroke="#8ED1FC" stroke-width="0.28603935185185186"></circle><circle r="0.5797453703703703" fill="#FFFFFF" stroke="#8ED1FC" stroke-width="0.15738966049382716" cx="18.5" cy="15.5"></circle><circle cx="11.5" cy="17.5" r="0.4840258487654321" fill="#FFFFFF" stroke="#8ED1FC" stroke-width="0.1875733024691358"></circle><circle cx="11.5" cy="18.5" r="0.6462461419753087" fill="#FFFFFF" stroke="#8ED1FC" stroke-width="0.15633101851851852"></circle><circle r="0.6471267361111112" fill="#FFFFFF" stroke="#8ED1FC" stroke-width="0.22865586419753087" cx="21.5" cy="21.5"></circle><circle cx="12.5" cy="23.5" r="0.5957040895061728" fill="#FFFFFF" stroke="#8ED1FC" stroke-width="0.2830270061728395"></circle><circle cx="17.5" cy="24.5" r="0.614357638888889" fill="#FFFFFF" stroke="#8ED1FC" stroke-width="0.30035725308641975"></circle></svg>