<svg xmlns="http://www.w3.org/2000/svg" width="100" height="100" viewBox="0 0 100 100">
    <title>资源 2</title>
    <g id="图层_2" data-name="图层 2">
        <g id="图层_1-2" data-name="图层 1">
            <rect width="100" height="100" fill="#07c160"/>
            <path d="M48.766,39.21a2.941,2.941,0,1,1,2.918-2.94,2.929,2.929,0,0,1-2.918,2.94m-16.455,0a2.941,2.941,0,1,1,2.918-2.941,2.93,2.93,0,0,1-2.918,2.941m8.227-17.039c-13.632,0-24.682,9.282-24.682,20.732,0,6.247,3.324,11.87,8.528,15.67a1.662,1.662,0,0,1,.691,1.352,1.984,1.984,0,0,1-.087.528c-.415,1.563-1.081,4.064-1.112,4.181a2.449,2.449,0,0,0-.132.607.825.825,0,0,0,.823.828.914.914,0,0,0,.474-.154l5.405-3.144a2.57,2.57,0,0,1,1.31-.382,2.442,2.442,0,0,1,.725.109,28.976,28.976,0,0,0,8.057,1.137c.455,0,.907-.012,1.356-.032a16.084,16.084,0,0,1-.829-5.082c0-10.442,10.078-18.908,22.511-18.908.45,0,.565.015,1.008.037-1.858-9.9-11.732-17.479-24.046-17.479" fill="#fff"/>
            <path d="M70.432,55.582A2.589,2.589,0,1,1,73,52.994a2.578,2.578,0,0,1-2.568,2.588m-13.713,0a2.589,2.589,0,1,1,2.568-2.588,2.578,2.578,0,0,1-2.568,2.588m20.319,16a16.3,16.3,0,0,0,7.106-13.058c0-9.542-9.208-17.276-20.568-17.276s-20.57,7.734-20.57,17.276S52.216,75.8,63.576,75.8a24.161,24.161,0,0,0,6.714-.947,2.079,2.079,0,0,1,.6-.091,2.138,2.138,0,0,1,1.092.319l4.5,2.62a.78.78,0,0,0,.4.129.688.688,0,0,0,.685-.691,2.081,2.081,0,0,0-.11-.5l-.927-3.486a1.641,1.641,0,0,1-.073-.44,1.385,1.385,0,0,1,.577-1.126" fill="#fff"/>
        </g>
    </g>
</svg>