<svg xmlns="http://www.w3.org/2000/svg" width="100" height="100" viewBox="0 0 100 100">
    <title>资源 4</title>
    <g id="图层_2" data-name="图层 2">
        <rect width="100" height="100" fill="#009ce1"/>
        <path d="M100,67.856c-.761-.1-4.8-.8-17.574-5.066-4.012-1.339-9.4-3.389-15.395-5.552A80.552,80.552,0,0,0,75.4,36.156H55.633v-7.1H79.848V25.094H55.633V13.258H45.749a1.68,1.68,0,0,0-1.733,1.707V25.094H19.524v3.963H44.016v7.1H23.8V40.12H63.013a69.579,69.579,0,0,1-5.65,13.763c-12.724-4.187-26.3-7.58-34.834-5.491C17.074,49.733,13.56,52.125,11.5,54.63,2.02,66.125,8.815,83.585,28.824,83.585c11.831,0,23.228-6.579,32.061-17.417C73.49,72.211,97.914,82.4,100,83.267ZM26.956,76.9c-15.6,0-20.215-12.255-12.5-18.958,2.573-2.266,7.276-3.372,9.782-3.621,9.268-.913,17.846,2.613,27.972,7.541C45.087,71.118,36.023,76.9,26.956,76.9Z" fill="#fff"/>
    </g>
</svg>