<svg xmlns="http://www.w3.org/2000/svg" width="100" height="100" viewBox="0 0 100 100">
    <title>资源 1</title>
    <g>
        <rect width="100" height="100" fill="#07c160"/>
        <path d="M39.061,44.018a4.375,4.375,0,1,1,4.374-4.375,4.375,4.375,0,0,1-4.374,4.375m21.877,0a4.375,4.375,0,1,1,4.376-4.375,4.375,4.375,0,0,1-4.376,4.375M28.522,69.063a2.184,2.184,0,0,1,.92,1.782,2.581,2.581,0,0,1-.116.7c-.552,2.06-1.437,5.361-1.478,5.516a3.237,3.237,0,0,0-.177.8,1.093,1.093,0,0,0,1.094,1.093,1.243,1.243,0,0,0,.633-.2L36.581,74.6a3.427,3.427,0,0,1,1.742-.5,3.3,3.3,0,0,1,.965.144A38.825,38.825,0,0,0,50,75.739c18.123,0,32.816-12.242,32.816-27.346S68.122,21.049,50,21.049,17.185,33.29,17.185,48.393c0,8.239,4.42,15.656,11.337,20.67" fill="#fff"/>
    </g>
</svg>