<svg xmlns="http://www.w3.org/2000/svg" width="100" height="100" viewBox="0 0 100 100">
    <title>资源 3</title>
    <g id="图层_2" data-name="图层 2"><g id="图层_1-2" data-name="图层 1">
        <rect width="100" height="100" fill="#07c160"/>
        <path d="M41.055,57.675a2.183,2.183,0,0,1-2.893-.883l-.143-.314L32.046,43.37a1.133,1.133,0,0,1-.105-.461,1.094,1.094,0,0,1,1.748-.877l7.049,5.019a3.249,3.249,0,0,0,2.914.333L76.8,32.63c-5.942-7-15.728-11.581-26.8-11.581-18.122,0-32.813,12.243-32.813,27.345,0,8.24,4.42,15.656,11.338,20.669a2.185,2.185,0,0,1,.919,1.781,2.569,2.569,0,0,1-.116.7c-.552,2.062-1.437,5.362-1.478,5.516a3.212,3.212,0,0,0-.177.8,1.094,1.094,0,0,0,1.1,1.094,1.236,1.236,0,0,0,.631-.2L36.583,74.6a3.438,3.438,0,0,1,1.742-.5,3.281,3.281,0,0,1,.965.145A38.844,38.844,0,0,0,50,75.739c18.122,0,32.813-12.243,32.813-27.345a23.668,23.668,0,0,0-3.738-12.671L41.3,57.537Z" fill="#fff"/>
    </g>
    </g>
</svg>